<svg width="26" height="16" viewBox="0 0 26 16" xmlns="http://www.w3.org/2000/svg"><title>email</title><path d="M25.61 1.373C25.609.631 25.02.029 24.297.029h-.002L1.311.06C.96.06.63.2.383.457A1.356 1.356 0 0 0 0 1.409l.018 13.246c0 .36.137.698.385.952S.98 16 1.33 16h.002l22.984-.032c.724-.001 1.312-.606 1.311-1.349L25.61 1.373zm-2.755.004l-10.04 7.159-10.06-7.13 20.1-.03zm-5.794 8.51l5.954 4.736-20.42.029 5.991-4.765a.685.685 0 0 0 .117-.945.646.646 0 0 0-.921-.12l-6.453 5.133L1.313 2.02l11.13 7.888a.644.644 0 0 0 .747 0l11.108-7.92.017 11.965-6.45-5.13a.645.645 0 0 0-.92.119.685.685 0 0 0 .116.945z" fill="#410C50" fill-rule="evenodd"/></svg>