<svg width="280" height="63" viewBox="0 0 280 63" xmlns="http://www.w3.org/2000/svg"><path d="M172.987 61.37c-3.627 0-4.247-3.177-4.247-5.183 0-1.35.367-5.195 4.247-5.195 2.925 0 4.251 2.264 4.251 5.195 0 5.013-3.38 5.184-4.25 5.184zm0-11.779c-3.54 0-6.064 2.242-6.064 6.596 0 6.5 5.231 6.591 6.064 6.591.784 0 6.066-.09 6.066-6.591 0-5.07-3.246-6.596-6.066-6.596zm-25.13-48.526h-5.481v31.357h20.015l.384-.962h-14.919V1.065zm2.696 60.306c-2.686 0-4.3-2.144-4.3-5.043 0-2.702.998-5.336 4.176-5.336 2.906 0 3.47 1.905 3.561 2.812h1.703c-.197-1.906-1.213-4.213-5.264-4.213-1.074 0-5.993.197-5.993 6.806 0 3.984 2.272 6.381 6.046 6.381 4.09 0 5.14-2.717 5.376-4.498h-1.703c-.093 1.781-1.561 3.09-3.602 3.09zm19.873-40.533l4.79-11.875 4.208 11.875h-8.998zm7.58-19.773h-.885l-12.487 31.357h1.15l4.396-10.625h9.583l3.98 10.625h5.765L178.005 1.065zm22.503 59.347l-2.635-10.447h-1.96l-2.636 10.447-2.653-10.447h-1.921l3.38 12.436h2.176l2.63-10.466 2.64 10.466h2.175l3.378-12.436h-1.923l-2.651 10.447zm63.566-28.952V16.145h8.024v-.955h-8.024V2.026h14.928l-.659-.96h-19.746v31.356h20.495l.635-.962h-15.653zm-46.014-8.372L201.039 1.065h-4.108v31.357h1.03V5.853l20.788 27.099h.34V1.065h-1.028v22.023zm22.38 8.952c-1.814 0-3.724-.862-4.996-2.06-2.64-2.394-2.987-5.986-2.987-8.568v-7.756c0-2.056.198-6.46 2.499-9.29.925-1.142 2.886-2.916 6.308-2.916 5.189 0 7.675 2.459 9.051 3.978V3.361C248.854 2.094 245.678.54 240.727.54c-3.227 0-8.218 1.146-11.689 6.558-2.007 3.113-2.741 6.417-2.741 10.007 0 4.255 1.077 7.513 2.64 9.907 2.741 4.259 6.996 5.94 10.715 5.94 6.464 0 11.033-2.968 12.477-5.515l-1.083-.627c-1.81 2.264-5.106 5.23-10.605 5.23zM81.184 60.202l-3.978-10.237h-2.56V62.4h1.707v-9.968l-.037-.479h.037L80.494 62.4h1.382L86 51.954h.05l-.035.48V62.4h1.704V49.965h-2.554l-3.981 10.237zm41.613-59.137h-5.477v31.357h20.014l.38-.962h-14.917V1.065zM5.479 16.145h8.02v-.955h-8.02V2.026h14.928l-.657-.96H0v31.356h20.495l.638-.962H5.48V16.145zm76.182 11.292l-1.079-.627c-1.818 2.264-5.113 5.23-10.618 5.23-1.81 0-3.72-.862-4.996-2.06-2.635-2.394-2.976-5.986-2.976-8.568v-7.756c0-2.056.191-6.46 2.495-9.29.925-1.142 2.883-2.916 6.308-2.916 5.19 0 7.672 2.459 9.046 3.978V3.361C78.384 2.094 75.208.54 70.258.54c-3.23 0-8.218 1.146-11.691 6.558-2.004 3.113-2.738 6.417-2.738 10.007 0 4.255 1.075 7.513 2.64 9.907 2.742 4.259 6.993 5.94 10.71 5.94 6.464 0 11.034-2.968 12.482-5.515zM48.688 1.162h-1.336L39.485 12.94 31.502 1.16h-6.516l10.978 15.996-10.275 15.37h1.354l9.508-14.361 9.75 14.36h6.352L40.224 13.95l8.464-12.788zm60.574 30.298H93.6V16.145h8.027v-.955H93.6V2.026h14.93l-.655-.96H88.127v31.356h20.492l.643-.962zm-3.553 29.91c-3.636 0-4.253-3.177-4.253-5.183 0-1.35.366-5.195 4.253-5.195 2.925 0 4.25 2.264 4.25 5.195 0 5.013-3.378 5.184-4.25 5.184zm0-11.779c-3.548 0-6.067 2.242-6.067 6.596 0 6.5 5.229 6.591 6.067 6.591.778 0 6.06-.09 6.06-6.591 0-5.07-3.247-6.596-6.06-6.596zm22.684 5.561c-1.673-.315-3.182-.568-3.182-2.078 0-1.276 1.186-2.082 2.945-2.082.826 0 2.818.145 3.053 2.206h1.708c-.146-1.92-1.56-3.607-4.7-3.607-2.873 0-4.815 1.223-4.815 3.57 0 2.862 2.56 3.095 5.464 3.715 1.184.254 2.56.661 2.56 2.188 0 1.192-.87 2.307-3.123 2.307-2.325 0-3.686-1.26-3.633-2.913h-1.704c.2 3.929 3.43 4.32 5.25 4.32 1.052 0 5.026-.04 5.026-3.751 0-2.989-2.576-3.446-4.85-3.875z" fill-rule="evenodd"/></svg>