<svg width="25" height="37" viewBox="0 0 25 37" xmlns="http://www.w3.org/2000/svg"><title>marker-main</title><path d="M14.157 17.836c.097-.073.205-.148.291-.232 3.262 2.455 11.141 2.73 9.278-2.581-1.118 2.033-4.67 3.254-8.685 1.822l.129-.295c4.433 1.138 9.936-1.127 9.784-6.426-.13-4.687-4.66-6.764-6.706-7.038 1.98 1.011 4.22 4.036 3.843 7.46-.431 3.918-4.144 4.982-6.75 5.193v-.21c2.132-.316 5.124-1.707 5.093-5.522C20.389 5.035 14.889 3.54 13.857 0c-.82 4.234 2.605 4.962 2.96 9.46.096 1.265-.01 3.076-1.594 4.562a1.9 1.9 0 0 1-.209.168c-1.67-.982-2.697-4.08-.37-5.565-.964-.694-2.276-.47-3.287.561-.964.985-1.714 3.13-1.652 4.808-1.554-1.48-1.662-3.278-1.565-4.534.354-4.498 3.779-5.226 2.961-9.46-1.034 3.54-6.535 5.035-6.576 10.007-.035 3.815 2.958 5.206 5.09 5.521v.211c-2.604-.21-6.317-1.275-6.748-5.193-.379-3.424 1.86-6.449 3.842-7.46C4.664 3.36.131 5.437.003 10.124c-.15 5.299 5.35 7.564 9.784 6.426l.13.295c-4.017 1.432-7.566.21-8.687-1.822-1.862 5.31 6.018 5.036 9.278 2.58.087.085.195.16.292.233-1.453 1.232-4.08 2.928-6.803 2.15.539 3.97 6.566 1.23 7.287-1.877.075.031.15.064.237.084-.518 2.065-1.949 4.226-4.21 4.563 1.474 2.844 5.641.578 4.93-4.424.054.01.12.01.183.01h.109c.064 0 .128 0 .181-.01-.709 5.002 3.456 7.268 4.932 4.424-2.261-.337-3.693-2.498-4.21-4.563.086-.02.162-.053.238-.084.72 3.108 6.748 5.847 7.287 1.876-2.724.779-5.351-.917-6.804-2.149zM12.519 37c-.04 0-5.31-3.82-5.31-6.73a5.27 5.27 0 1 1 10.54 0c0 2.91-5.19 6.73-5.23 6.73zm-.04-4.5a2.5 2.5 0 1 0 0-5 2.5 2.5 0 0 0 0 5z" fill="#421D6A" fill-rule="evenodd"/></svg>