<svg width="17" height="24" viewBox="0 0 17 24" xmlns="http://www.w3.org/2000/svg" xmlns:xlink="http://www.w3.org/1999/xlink"><title>placeholder</title><defs><path id="a" d="M8.444.249H.018V23.7H16.87V.25H8.444z"/></defs><g transform="translate(.028)" fill="none" fill-rule="evenodd"><mask id="b" fill="#fff"><use xlink:href="#a"/></mask><path d="M8.435.249C3.784.249 0 4.122 0 8.882a8.6 8.6 0 0 0 .737 3.525c2.11 4.723 6.153 9.71 7.343 11.126a.461.461 0 0 0 .71 0c1.19-1.416 5.233-6.402 7.342-11.126a8.581 8.581 0 0 0 .739-3.525C16.87 4.122 13.086.25 8.435.25zm0 13.118c-2.416 0-4.382-2.012-4.382-4.485 0-2.472 1.966-4.485 4.382-4.485 2.416 0 4.382 2.013 4.382 4.485 0 2.473-1.966 4.485-4.382 4.485z" fill="#410C50" mask="url(#b)"/></g></svg>