<svg width="28" height="23" viewBox="0 0 28 23" xmlns="http://www.w3.org/2000/svg"><title>twitter</title><path d="M28 2.629c-1.03.446-2.136.748-3.298.883A5.66 5.66 0 0 0 27.227.41a11.748 11.748 0 0 1-3.65 1.362A5.792 5.792 0 0 0 19.385 0c-3.173 0-5.745 2.512-5.745 5.61 0 .439.051.868.15 1.278A16.439 16.439 0 0 1 1.95 1.025a5.47 5.47 0 0 0-.776 2.82c0 1.947 1.015 3.665 2.555 4.67a5.848 5.848 0 0 1-2.602-.704v.07c0 2.717 1.98 4.985 4.607 5.502a5.948 5.948 0 0 1-1.514.196c-.37 0-.73-.036-1.081-.104.731 2.23 2.852 3.852 5.364 3.897A11.7 11.7 0 0 1 1.37 19.77c-.464 0-.92-.028-1.37-.077a16.517 16.517 0 0 0 8.804 2.524c10.567 0 16.342-8.549 16.342-15.963l-.019-.727A11.328 11.328 0 0 0 28 2.63z" fill="#410C50" fill-rule="evenodd"/></svg>