<svg width="38" height="22" viewBox="0 0 38 22" xmlns="http://www.w3.org/2000/svg"><title>vk</title><path d="M36.236 17.378c-1.126-1.354-2.45-2.51-3.703-3.736-1.13-1.106-1.202-1.748-.293-3.024.992-1.393 2.058-2.733 3.06-4.12.934-1.296 1.889-2.588 2.38-4.14.312-.987.036-1.423-.973-1.596a3.108 3.108 0 0 0-.531-.032l-5.99-.007c-.737-.011-1.145.311-1.406.967-.352.886-.715 1.772-1.135 2.627-.952 1.94-2.015 3.814-3.506 5.4-.328.35-.692.793-1.241.61-.687-.25-.89-1.386-.878-1.77l-.006-6.933C21.88.634 21.662.192 20.68 0l-6.222.001c-.83 0-1.247.322-1.69.843-.256.3-.333.496.192.596 1.033.196 1.615.866 1.77 1.905.247 1.659.23 3.325.087 4.99-.042.487-.125.972-.318 1.426-.3.714-.786.86-1.425.42-.577-.398-.983-.959-1.38-1.522-1.493-2.114-2.683-4.395-3.654-6.79C7.76 1.176 7.276.757 6.544.745a152.247 152.247 0 0 0-5.39.002C.072.767-.25 1.294.19 2.277c1.957 4.365 4.135 8.61 6.98 12.476 1.46 1.985 3.136 3.736 5.301 4.978 2.455 1.407 5.096 1.83 7.88 1.7 1.302-.061 1.693-.401 1.754-1.703.04-.891.141-1.777.58-2.578.43-.786 1.081-.935 1.832-.446.376.244.692.556.991.884.734.805 1.44 1.634 2.202 2.411.955.974 2.086 1.55 3.508 1.433h5.505c.887-.057 1.346-1.148.837-2.14-.357-.696-.827-1.315-1.325-1.914z" fill="#410C50" fill-rule="evenodd"/></svg>