<svg width="32" height="32" viewBox="0 0 32 32" xmlns="http://www.w3.org/2000/svg"><title>account</title><g transform="translate(-2)" fill="none" fill-rule="evenodd"><circle fill="#999" cx="18" cy="16" r="16"/><path d="M19.899 14.585a3.585 3.585 0 0 0 1.621-3.008C21.52 9.602 19.944 8 18 8s-3.52 1.602-3.52 3.577c0 1.264.647 2.372 1.622 3.008-2.296.21-4.102 2.174-4.102 4.56v3.713l.01.058.251.08C14.632 23.748 16.693 24 18.39 24c3.312 0 5.232-.96 5.351-1.02l.235-.122H24v-3.713c0-2.386-1.805-4.35-4.101-4.56z" fill="#FFF"/></g></svg>