<svg width="26" height="26" viewBox="0 0 26 26" xmlns="http://www.w3.org/2000/svg" xmlns:xlink="http://www.w3.org/1999/xlink"><title>benefit-2</title><defs><path d="M22.387 24.547a2.168 2.168 0 0 1-2.172-2.16c0-1.19.975-2.16 2.172-2.16s2.171.97 2.171 2.16c0 1.191-.974 2.16-2.17 2.16zM11.771 14.253c0-1.19.974-2.16 2.172-2.16 1.197 0 2.17.97 2.17 2.16 0 1.191-.973 2.16-2.17 2.16a2.168 2.168 0 0 1-2.172-2.16zm-7.65 9.674a2.168 2.168 0 0 1-2.172-2.16c0-1.19.974-2.16 2.172-2.16 1.196 0 2.17.97 2.17 2.16 0 1.19-.974 2.16-2.17 2.16zM22.387 5.315c1.197 0 2.171.968 2.171 2.159 0 1.19-.974 2.16-2.17 2.16a2.168 2.168 0 0 1-2.173-2.16c0-1.19.975-2.16 2.172-2.16zm-19.03 6.258a2.168 2.168 0 0 1-2.171-2.16c0-1.19.974-2.16 2.171-2.16 1.197 0 2.17.97 2.17 2.16 0 1.191-.973 2.16-2.17 2.16zm5.657-8.234c0-1.191.974-2.16 2.172-2.16 1.197 0 2.17.969 2.17 2.16 0 1.19-.973 2.16-2.17 2.16a2.168 2.168 0 0 1-2.172-2.16zm13.373 15.71c-.731 0-1.407.236-1.96.632l-3.942-3.253a3.296 3.296 0 0 0 .477-3.626l3.45-2.634a3.348 3.348 0 0 0 1.975.645c1.851 0 3.357-1.498 3.357-3.339s-1.506-3.339-3.357-3.339c-1.851 0-3.357 1.498-3.357 3.339 0 .679.206 1.31.557 1.838l-3.323 2.535a3.352 3.352 0 0 0-2.635-.917l-1.204-4.492a3.342 3.342 0 0 0 2.118-3.1c0-1.84-1.507-3.338-3.357-3.338-1.852 0-3.358 1.498-3.358 3.339 0 1.84 1.506 3.338 3.358 3.338l.075-.003 1.227 4.575a3.37 3.37 0 0 0-1.338 1.155l-4.658-1.806c.141-.37.222-.767.222-1.185 0-1.84-1.506-3.339-3.357-3.339C1.506 6.074 0 7.572 0 9.414c0 1.84 1.506 3.338 3.357 3.338 1 0 1.896-.44 2.51-1.13l4.811 1.865a3.334 3.334 0 0 0-.092.766c0 .526.126 1.022.345 1.465L6.17 19.13a3.343 3.343 0 0 0-2.05-.702c-1.852 0-3.358 1.498-3.358 3.34 0 1.84 1.506 3.338 3.358 3.338 1.85 0 3.356-1.498 3.356-3.339 0-.644-.188-1.245-.507-1.756l4.662-3.342a3.351 3.351 0 0 0 3.914.517l4.053 3.344c-.36.531-.57 1.17-.57 1.857 0 1.841 1.507 3.339 3.358 3.339 1.851 0 3.357-1.498 3.357-3.339 0-1.84-1.506-3.338-3.357-3.338z" id="a"/></defs><g transform="translate(0 .166)" fill="none" fill-rule="evenodd"><mask id="b" fill="#fff"><use xlink:href="#a"/></mask><use fill="#421D6A" xlink:href="#a"/><ellipse fill="#3996C4" mask="url(#b)" cx="11.14" cy="3.07" rx="3.63" ry="3.61"/></g></svg>