<svg width="28" height="28" viewBox="0 0 28 28" xmlns="http://www.w3.org/2000/svg"><title>instagram</title><path d="M3.572 0h20.683c1.965 0 3.572 1.454 3.572 3.571v20.685c0 2.117-1.607 3.571-3.572 3.571H3.572C1.607 27.827 0 26.373 0 24.256V3.57C0 1.454 1.607 0 3.572 0zM20.27 3.092c-.69 0-1.252.563-1.252 1.253v2.998c0 .69.563 1.253 1.252 1.253h3.145c.69 0 1.253-.564 1.253-1.253V4.345c0-.69-.564-1.253-1.253-1.253H20.27zm4.411 8.676h-2.45c.233.757.358 1.558.358 2.387 0 4.629-3.873 8.38-8.65 8.38s-8.65-3.751-8.65-8.38c0-.83.126-1.63.358-2.387H3.092v11.755A1.11 1.11 0 0 0 4.2 24.629h19.377a1.11 1.11 0 0 0 1.107-1.106V11.768h-.001zM13.94 8.438c-3.087 0-5.589 2.424-5.589 5.415s2.502 5.415 5.589 5.415c3.086 0 5.589-2.424 5.589-5.415 0-2.99-2.502-5.415-5.59-5.415z" fill="#410C50" fill-rule="evenodd"/></svg>