<?xml version="1.0" standalone="no"?>
<!DOCTYPE svg PUBLIC "-//W3C//DTD SVG 1.1//EN" "http://www.w3.org/Graphics/SVG/1.1/DTD/svg11.dtd" >
<svg xmlns="http://www.w3.org/2000/svg">
<metadata>Generated by IcoMoon</metadata>
<defs>
<font id="icomoon" horiz-adv-x="1024">
<font-face units-per-em="1024" ascent="960" descent="-64" />
<missing-glyph horiz-adv-x="1024" />
<glyph unicode="&#x20;" horiz-adv-x="512" d="" />
<glyph unicode="&#xe900;" d="M1024 448c0-282.77-229.23-512-512-512s-512 229.23-512 512c0 282.77 229.23 512 512 512s512-229.23 512-512z" />
<glyph unicode="&#xe901;" d="M572.764 493.268c31.18 20.363 51.881 55.83 51.881 96.276 0 63.208-50.437 114.456-112.629 114.456-62.22 0-112.645-51.249-112.645-114.457 0-40.446 20.702-75.92 51.882-96.276-73.462-6.68-131.254-69.561-131.254-145.922v-118.794l0.296-1.856 8.061-2.557c75.88-24.086 141.818-32.137 196.090-32.137 105.987 0 167.428 30.721 171.235 32.669l7.527 3.882h0.791v118.795c0.009 76.355-57.764 139.226-131.236 145.922z" />
<glyph unicode="&#xe902;" horiz-adv-x="1097" d="M922.775-6.91h-780.957v93.813c0 30.561 19.661 57.635 48.995 67.612l2.312 0.66c38.582 10.337 59.891 20.464 77.013 28.607 6.62 3.156 12.332 5.891 17.909 7.995 46.2 17.487 109.884 45.133 129.257 82.694 0.756 1.442 1.3 2.675 1.6 3.366l2.813 6.25c38.356-28.247 77.8-44.833 110.579-44.833 32.765 0 72.237 16.587 110.563 44.833l2.842-6.25c0.271-0.631 0.816-1.892 1.571-3.335 19.402-37.592 83.060-65.237 129.304-82.724 5.561-2.104 11.241-4.841 17.893-7.995 17.108-8.143 38.414-18.27 77.011-28.607l2.3-0.66c29.318-9.979 48.995-37.053 48.995-67.612v-93.813h0.002zM668.604 362.759c-22.758-25.001-47.935-45.977-73.082-60.82-23.666-13.976-46.126-21.668-63.232-21.668-17.108 0-39.565 7.693-63.232 21.668-26.538 15.626-53.076 38.1-76.773 64.935-29.869 33.865-52.674 71.636-67.078 110.083 6.846 14.604 14.781 29.703 23.923 44.744 28.215 46.365 62.385 83.192 101.557 109.454 48.571 32.544 105.425 49.040 168.988 49.040 19.133 0 39.172-1.502 59.603-4.446 27.113-8.098 75.467-33.296 101.259-64.066 5.018-21.47-2.319-33.384-7.738-56.412-13.729-58.352-34.583-95.427-68.587-146.812l-35.609-45.702zM296.934 505.27c-15.017 55.768-25.792 66.028-27.115 140.986 6.159 68.316 24.466 108.777 49.629 146.46 29.258 43.827 70.892 72.809 123.711 86.136 44.281 11.164 86.913 16.828 126.673 16.828 56.007 0 96.721-11.343 121.019-20.87 12.090-4.733 21.4-9.481 27.991-13.252l-49.691-143.156c-16.866 1.879-33.431 2.825-49.478 2.825-72.223 0-137.057-19.007-192.7-56.493-44.234-29.793-69.571-50.91-100.885-102.685-18.040-29.838-19.073-30.457-29.154-56.779v0zM805.712 636.37c-4.745 6.4-10.214 13.012-16.501 19.593-17.41 18.255-43.224 38.463-79.794 52.646l44.432 128.024c7.254-6.341 14.142-13.462 20.371-21.56 33.005-42.609 43.522-102.573 31.492-178.703v0zM381.308 318.674l-0.166-24.28c-0.182-0.39-0.333-0.779-0.515-1.171-5.38-10.397-26.416-32.484-107.284-63.103-22.789-8.621-40.108-21.755-91.31-35.428l-3.523-1.021c-46.606-15.293-77.965-58.266-77.965-106.766v-134.863h863.489v134.861c-0.002 48.5-31.345 91.471-77.953 106.766l-3.534 1.021c-51.204 13.674-68.49 26.807-91.281 35.428-80.882 30.62-101.92 52.706-107.3 63.103-0.182 0.392-0.333 0.783-0.516 1.171l-0.149 24.28c16.259 16.016 31.734 33.988 45.822 53.46 0 0 83.656 133.138 97.841 216.474 30.649 115.105 28.622 188.679-20.042 251.497-15.143 19.562-32.823 34.676-51.2 46.396-8.343 6.416-69.488 50.198-185.885 50.198-43.192 0-89.225-6.085-136.815-18.089-63.079-15.897-112.846-50.633-147.952-103.204-28.683-42.956-53.581-96.023-56.173-163.858-0.31-111.658 30.221-147.835 59.011-207.176l93.401-125.695z" />
<glyph unicode="&#xe903;" horiz-adv-x="1097" d="M971.083 411.875l-30.012-20.243c-1.383-0.933-2.328-2.354-2.615-4.001-0.312-1.609 0.020-3.344 0.928-4.691 14.11-20.919 25.502-36.566 43.271-47.241 15.341-9.234 33.845-13.705 58.317-13.929-15.566-9.827-35.13-20.114-56.167-22.163-33.364-3.258-62.744 14.189-89.727 53.449-1.959 2.82-5.819 3.572-8.664 1.653l-30.050-20.269 10.425 108.134 104.294-30.698zM855.001 451.349l-12.353-128.902c-0.229-2.392 0.953-4.728 3.019-5.965 2.063-1.237 4.686-1.148 6.685 0.2l35.969 24.262c28.59-39.238 61.419-57.322 97.675-53.794 31.255 3.067 58.307 21.481 76.174 33.702l4.15 2.799c2.344 1.581 3.357 4.556 2.416 7.279-0.172 0.501-0.445 0.987-0.732 1.411-1.245 1.846-3.372 2.927-5.646 2.737-68.39-5.288-86.363 16.217-109.069 49.633l35.853 24.183c1.998 1.348 3.065 3.745 2.664 6.161-0.398 2.416-2.096 4.35-4.425 5.071l-124.35 36.64c-1.803 0.519-3.73 0.227-5.268-0.81s-2.569-2.741-2.763-4.606v0z" />
<glyph unicode="&#xe904;" horiz-adv-x="1097" d="M100.541 411.88l30.012-20.243c1.383-0.933 2.328-2.354 2.614-4.002 0.312-1.61-0.021-3.345-0.929-4.692-14.115-20.927-25.512-36.58-43.285-47.262-15.345-9.24-33.852-13.715-58.327-13.943 15.566-9.827 35.131-20.113 56.17-22.159 33.368-3.252 62.754 14.204 89.748 53.48 1.96 2.821 5.82 3.574 8.665 1.655l30.050-20.269-10.406 108.161-104.312-30.726zM216.646 451.386l12.331-128.935c0.229-2.392-0.954-4.73-3.021-5.967-2.063-1.238-4.687-1.149-6.686 0.199l-35.969 24.262c-28.601-39.254-61.438-57.349-97.697-53.827-31.258 3.062-58.31 21.476-76.177 33.697l-4.15 2.799c-2.344 1.581-3.356 4.557-2.415 7.281 0.173 0.501 0.445 0.987 0.732 1.411 1.246 1.847 3.373 2.928 5.647 2.739 68.398-5.277 86.377 16.237 109.092 49.666l-35.853 24.183c-1.998 1.348-3.065 3.746-2.664 6.162 0.399 2.417 2.097 4.352 4.426 5.074l124.372 36.673c1.803 0.52 3.73 0.228 5.269-0.81 1.537-1.037 2.569-2.741 2.762-4.607v0z" />
<glyph unicode="&#xe905;" d="M881.712-13.307c-47.164 0-85.533 38.15-85.533 85.047s38.369 85.047 85.533 85.047c47.148 0 85.502-38.15 85.502-85.047s-38.354-85.047-85.502-85.047zM463.605 392.11c0 46.882 38.369 85.032 85.517 85.032s85.517-38.15 85.517-85.032c0-46.913-38.369-85.062-85.517-85.062s-85.517 38.15-85.517 85.062zM162.287 11.109c-47.179 0-85.533 38.165-85.533 85.047 0 46.913 38.354 85.062 85.533 85.062 47.133 0 85.486-38.15 85.486-85.062 0-46.882-38.354-85.047-85.486-85.047zM881.712 744.142c47.148 0 85.502-38.15 85.502-85.047s-38.354-85.047-85.502-85.047c-47.164 0-85.533 38.15-85.533 85.047s38.369 85.047 85.533 85.047zM132.214 497.656c-47.148 0-85.517 38.165-85.517 85.062 0 46.882 38.369 85.047 85.517 85.047s85.502-38.165 85.502-85.047c0-46.897-38.354-85.062-85.502-85.062zM355.004 821.959c0 46.897 38.369 85.047 85.533 85.047 47.148 0 85.517-38.15 85.517-85.047s-38.369-85.047-85.517-85.047c-47.164 0-85.533 38.15-85.533 85.047zM881.712 203.235c-28.812 0-55.413-9.321-77.174-24.927l-155.298 128.136c19.94 23.038 32.096 52.936 32.096 85.666 0 20.499-4.872 39.837-13.324 57.147l135.934 103.719c21.87-15.885 48.689-25.376 77.766-25.376 72.894 0 132.198 58.989 132.198 131.495s-59.305 131.495-132.198 131.495c-72.909 0-132.23-58.989-132.23-131.495 0-26.739 8.11-51.604 21.947-72.382l-130.875-99.849c-23.769 22.698-55.958 36.725-91.432 36.725-4.156 0-8.281-0.232-12.359-0.619l-47.397 176.906c48.783 19.353 83.385 66.746 83.385 122.082 0 72.506-59.32 131.495-132.214 131.495-72.909 0-132.23-58.989-132.23-131.495s59.32-131.495 132.23-131.495c1.012 0 1.992 0.124 2.989 0.139l48.3-180.189c-21.387-10.281-39.599-25.996-52.689-45.473l-183.456 71.128c5.557 14.523 8.732 30.207 8.732 46.65 0 72.506-59.289 131.495-132.198 131.495s-132.214-58.989-132.214-131.495c0-72.521 59.305-131.511 132.214-131.511 39.365 0 74.668 17.31 98.888 44.544l189.449-73.466c-2.288-9.708-3.642-19.787-3.642-30.176 0-20.716 4.965-40.255 13.589-57.689l-187.456-134.391c-22.352 17.263-50.323 27.637-80.754 27.637-72.925 0-132.23-58.989-132.23-131.511 0-72.506 59.305-131.495 132.23-131.495 72.878 0 132.183 58.989 132.183 131.495 0 25.392-7.394 49.049-19.971 69.177l183.612 131.635c23.737-22.481 55.756-36.369 91.012-36.369 22.866 0 44.377 5.806 63.15 15.994l159.625-131.712c-14.149-20.917-22.414-46.077-22.414-73.141 0-72.506 59.32-131.495 132.23-131.495 72.894 0 132.198 58.989 132.198 131.495s-59.305 131.495-132.198 131.495v0z" />
<glyph unicode="&#xe906;" d="M581.451 832.459c0-78.482-63.962-142.104-142.864-142.104s-142.864 63.622-142.864 142.104c0 78.482 63.962 142.104 142.864 142.104s142.864-63.622 142.864-142.104z" />
<glyph unicode="&#xe907;" d="M514.827 344.626c10.507 9.82 22.297 18.575 31.289 29.616 22.235 27.33 17.352 69.654-10.167 91.657-9.024 7.226-19.67 12.523-29.899 18.081-3.724 2.038-5.099 4.092-4.991 8.199 1.514 60.034 2.936 120.037 4.249 180.087 0.139 5.729 1.53 9.496 6.953 12.893 13.628 8.492 19.222 25.771 14.432 40.856-5.114 15.997-19.021 26.172-35.554 25.987-16.193-0.17-30.208-10.592-34.905-25.925-4.79-15.657 1.020-32.765 14.973-41.335 4.944-3.042 6.042-6.346 6.165-11.596 1.143-49.596 2.58-99.192 3.832-148.803 0.232-9.249 0.046-18.529 0.046-27.778-0.649-0.556-1.313-1.127-1.962-1.668-8.668 6.748-18.295 12.6-25.758 20.505-13.134 13.943-15.637 49.889 7.432 65.423 1.731 1.174 3.94 3.258 3.986 4.972 0.355 12.353 0.201 24.721 0.201 36.734-2.225 0.432-6.984-0.757-8.823-1.59-29.018-13.156-46.571-35.051-49.105-67.183-2.457-31.329 7.571-57.95 34.21-76.139 11.032-7.535 23.486-13.094 35.616-18.915 4.296-2.069 5.918-4.231 6.026-9.002 1.329-59.509 2.859-119.049 4.326-178.558 0.062-2.332 0.015-4.632 0.015-7.767-15.761 10.654-19.623 23.702-17.537 41.181 1.916 15.842-0.912 48.392-1.205 48.145-39.061-30.11-36.744-83.010-1.607-106.882 5.254-3.551 11.094-6.269 16.178-10.006 2.256-1.652 4.558-4.818 4.744-7.442 0.803-11.642 0.803-23.393 1.128-35.097 0.649-22.991 1.298-46.014 1.947-69.098 0.34 0.031 0.68 0.031 1.004 0.031 0.881 34.68 1.731 69.376 2.565 104.411 26.067-10.886 34.256-43.512 16.78-65.624-4.342-5.512-4.512-10.546-3.399-17.618 3.245 2.301 5.81 3.86 8.066 5.79 27.859 23.516 27.241 67.492-1.344 91.888-4.265 3.613-8.761 7.026-13.536 9.913-4.481 2.702-5.841 6.037-5.702 11.195 1.391 51.897 2.519 103.793 3.662 155.675 0.185 9.033 0.031 18.081 0.031 27.747 28.276-10.762 34.951-36.363 16.919-58.227-1.53-1.853-3.229-4.293-3.291-6.516-0.324-12.121 1.298-37.598 2.009-38.216z" />
<glyph unicode="&#xe908;" d="M411.67-8.364h190.641l0.402 22.559c0.989 53.672 1.962 107.345 2.874 161.002 0.17 9.311 0.139 18.622 0.093 30.418l-0.046 63.508 234.492-147.491 100.976 160.245-253.111 160.971 251.767 162.777-101.996 159.674-231.309-147.568v272.639h-190.734v-275.341l-235.064 147.738c0 0-98.828-153.111-106.059-161.588l261.996-158.547-259.895-165.063c0 0 100.868-149.684 106.415-158.191l228.559 145.931v-273.674zM648.402-55.289h-283.69v234.948l-195.446-124.793-160.217 242.854 238.494 143.955-242.419 144.094 160.773 241.726 202.863-127.526v237.326h284.648v-233.944l198.66 126.738 152.383-238.515-229.517-148.402 230.799-146.781-150.915-239.457-202.168 127.171c-0.031-3.273-0.046-6.485-0.108-9.712-0.912-53.672-4.141-229.683-4.141-229.683v0z" />
<glyph unicode="&#xe909;" glyph-name="cart" horiz-adv-x="975" d="M970.538 779.516c-3.545 4.066-8.628 6.392-13.967 6.392h-785.674l-9.332 78.933c-6.412 54.249-51.737 95.159-105.427 95.159h-37.468c-10.313 0-18.669-8.507-18.669-19s8.356-19 18.669-19h37.468c34.812 0 64.2-26.524 68.357-61.699l75.975-642.548c6.676-56.448 53.838-99.015 109.701-99.015h72.748l-7.948-15.319c-5.989 1.512-12.242 2.328-18.684 2.328-42.82 0-77.655-35.454-77.655-79.032s34.835-79.032 77.655-79.032c42.82 0 77.657 35.454 77.657 79.032 0 23.395-10.049 44.44-25.978 58.923l17.173 33.1h385.2l-7.948-15.319c-5.989 1.512-12.242 2.328-18.684 2.328-42.82 0-77.657-35.454-77.657-79.032s34.837-79.032 77.657-79.032c42.82 0 77.657 35.454 77.657 79.032 0 23.395-10.049 44.44-25.978 58.923l17.173 33.1h15.528c10.313 0 18.669 8.507 18.669 19s-8.356 19-18.669 19h-557.919c-36.985 0-68.211 28.183-72.631 65.555l-10.333 87.382h677.55c9.449 0 17.407 7.182 18.535 16.73l51.814 438.233c0.64 5.396-1.023 10.812-4.565 14.878v0zM396.606 26.714c0-22.625-18.087-41.032-40.318-41.032s-40.316 18.407-40.316 41.032c0 22.625 18.087 41.032 40.316 41.032 0.057 0 0.115-0.008 0.172-0.008l-16.681-32.15c-4.817-9.28-1.327-20.773 7.791-25.673 2.78-1.495 5.76-2.201 8.7-2.201 6.701 0 13.181 3.683 16.526 10.133l16.671 32.13c4.491-6.62 7.139-14.63 7.139-23.264zM824.028 26.714c0-22.625-18.087-41.032-40.318-41.032s-40.318 18.407-40.318 41.032c0 22.625 18.087 41.032 40.318 41.032 0.057 0 0.115-0.008 0.172-0.008l-16.681-32.15c-4.817-9.28-1.327-20.773 7.791-25.673 2.78-1.495 5.76-2.201 8.7-2.201 6.701 0 13.181 3.683 16.526 10.133l16.671 32.13c4.491-6.62 7.139-14.63 7.139-23.264zM480.912 747.907h149.089l-11.060-400.233h-126.967l-11.062 400.233zM454.62 347.674h-107.924l-30.623 400.233h127.485l11.062-400.233zM667.354 747.907h127.485l-30.623-400.233h-107.924l11.062 400.233zM175.393 747.907h103.227l30.623-400.233h-86.529l-47.321 400.233zM888.199 347.674h-86.529l30.623 400.233h103.227l-47.321-400.233z" />
<glyph unicode="&#xe90a;" glyph-name="close" d="M1024 903.111l-56.889 56.889-455.111-455.111-455.111 455.111-56.889-56.889 455.111-455.111-455.111-455.111 56.889-56.889 455.111 455.111 455.111-455.111 56.889 56.889-455.111 455.111z" />
<glyph unicode="&#xe90b;" glyph-name="dropdown" horiz-adv-x="2048" d="M1865.742 871.604c-23.706 23.706-62.235 23.706-85.885 0l-755.050-756.493-756.475 756.493c-23.724 23.706-62.253 23.706-85.885 0-23.706-23.632-23.706-62.161 0-85.885l797.909-797.909c11.862-11.844 26.685-17.784 42.933-17.784 14.823 0 31.090 5.94 42.952 17.784l797.983 797.909c25.149 23.724 25.149 62.253 1.517 85.885z" />
<glyph unicode="&#xe90c;" glyph-name="facebook" horiz-adv-x="512" d="M16.348 422.826h111.104v-455.146c0-8.986 7.318-16.268 16.348-16.268h188.38c9.031 0 16.348 7.281 16.348 16.268v453.002h127.723c8.305 0 15.292 6.201 16.24 14.41l19.399 167.562c0.533 4.61-0.935 9.227-4.035 12.685-3.103 3.462-7.543 5.443-12.202 5.443h-147.118v105.036c0 31.663 17.133 47.719 50.927 47.719h96.191c9.031 0 16.348 7.285 16.348 16.268v153.806c0 8.986-7.317 16.268-16.348 16.268h-132.565c-0.935 0.046-3.011 0.12-6.072 0.12-23.002 0-102.953-4.493-166.108-62.308-69.976-64.068-60.249-140.779-57.924-154.080v-122.826h-116.636c-9.031 0-16.348-7.281-16.348-16.268v-165.421c0-8.986 7.317-16.271 16.348-16.271z" />
<glyph unicode="&#xe90d;" glyph-name="instagram" d="M130.623 960h756.433c71.837 0 130.612-53.185 130.612-130.612v-756.454c0-77.427-58.776-130.612-130.612-130.612h-756.433c-71.857 0-130.623 53.185-130.623 130.612v756.454c0 77.427 58.765 130.612 130.623 130.612v0zM741.334 846.932c-25.203 0-45.798-20.605-45.798-45.819v-109.662c0-25.203 20.595-45.819 45.798-45.819h115.022c25.203 0 45.819 20.616 45.819 45.819v109.662c0 25.213-20.616 45.819-45.819 45.819h-115.022zM902.656 529.627h-89.569c8.474-27.669 13.061-56.978 13.061-87.301 0-169.273-141.646-306.489-316.343-306.489-174.686 0-316.311 137.216-316.311 306.489 0 30.344 4.577 59.643 13.061 87.301h-93.466v-429.881c0-22.246 18.202-40.458 40.458-40.458h708.671c22.256 0 40.458 18.202 40.458 40.458v429.881h-0.021zM509.795 651.41c-112.87 0-204.382-88.66-204.382-198.040s91.512-198.040 204.382-198.040c112.881 0 204.403 88.66 204.403 198.040s-91.512 198.040-204.403 198.040z" />
<glyph unicode="&#xe90e;" glyph-name="marker-main" horiz-adv-x="692" d="M391.804 466.376c2.676 2.028 5.673 4.090 8.063 6.424 90.258-67.937 308.33-75.554 256.77 71.431-30.956-56.265-129.26-90.055-240.375-50.438l3.569 8.179c122.696-31.506 274.983 31.2 270.792 177.844-3.602 129.706-128.991 187.181-185.584 194.764 54.774-27.979 116.754-111.678 106.334-206.453-11.918-108.441-114.683-137.885-186.796-143.713v5.828c59 8.741 141.801 47.217 140.942 152.795-1.229 137.613-153.449 178.985-182.032 276.964-22.674-117.182 72.112-137.323 81.909-261.815 2.693-35-0.269-85.113-44.086-126.247-2.003-1.823-3.905-3.391-5.791-4.669-46.223 27.195-74.654 112.905-10.234 154.039-26.68 19.204-63.006 13.018-90.965-15.54-26.68-27.264-47.435-86.596-45.735-133.063-43.008 40.964-45.988 90.72-43.294 125.481 9.797 124.492 104.566 144.633 81.943 261.815-28.616-97.978-180.87-139.351-182.015-276.964-0.959-105.578 81.876-144.054 140.858-152.795v-5.828c-72.045 5.828-174.81 35.272-186.728 143.713-10.487 94.775 51.492 178.474 106.334 206.453-56.609-7.583-182.049-65.058-185.6-194.764-4.175-146.644 148.063-209.35 270.775-177.844l3.602-8.179c-111.165-39.617-209.402-5.828-240.409 50.438-51.543-146.985 166.529-139.368 256.77-71.431 2.39-2.334 5.387-4.396 8.063-6.424-40.214-34.096-112.916-81.024-188.277-59.486 14.914-109.889 181.729-34.079 201.676 51.92 2.070-0.852 4.141-1.755 6.565-2.317-14.325-57.151-53.933-116.961-116.501-126.281 40.786-78.707 156.109-16 136.448 122.447 1.464-0.273 3.282-0.273 5.050-0.273h3.013c1.767 0 3.535 0 5.016 0.273-19.627-138.448 95.645-201.154 136.482-122.447-62.568 9.321-102.193 69.13-116.501 126.281 2.373 0.562 4.478 1.465 6.582 2.317 19.93-86 186.762-161.809 201.659-51.92-75.378-21.538-148.080 25.389-188.294 59.486v0zM346.465-64c-1.115 0-146.965 105.701-146.965 186.254s65.301 145.854 145.854 145.854c80.553 0 145.854-65.301 145.854-145.854s-143.628-186.254-144.743-186.254zM345.354 60.541c38.212 0 69.189 30.977 69.189 69.189s-30.977 69.189-69.189 69.189c-38.212 0-69.189-30.977-69.189-69.189s30.977-69.189 69.189-69.189z" />
<glyph unicode="&#xe90f;" glyph-name="marker" horiz-adv-x="918" d="M453.142-64c-3.437 0-453.142 325.912-453.142 574.283s201.345 449.717 449.717 449.717c248.372 0 449.717-201.345 449.717-449.717s-442.854-574.283-446.291-574.283zM449.717 320c117.821 0 213.333 95.513 213.333 213.333s-95.513 213.333-213.333 213.333c-117.821 0-213.333-95.513-213.333-213.333s95.513-213.333 213.333-213.333z" />
<glyph unicode="&#xe910;" glyph-name="next" horiz-adv-x="539" d="M8.854 926.69c-13.725-13.101-13.725-34.393 0-47.463l437.97-417.264-437.97-418.052c-13.725-13.11-13.725-34.403 0-47.462 13.681-13.101 35.988-13.101 49.723 0l461.947 440.949c6.857 6.555 10.296 14.747 10.296 23.726 0 8.192-3.439 17.181-10.296 23.737l-461.947 440.99c-13.735 13.898-36.042 13.898-49.723 0.839z" />
<glyph unicode="&#xe911;" glyph-name="play-btn" horiz-adv-x="945" d="M928.658 469.22l-889.282 485.943c-10.266 5.706-19.088 6.361-26.452 1.972-7.365-4.387-11.043-12.288-11.043-23.7v-969.253c0-11.421 3.68-19.329 11.043-23.718 7.365-4.387 16.186-3.741 26.452 1.972l889.282 485.946c10.276 5.715 15.412 12.532 15.412 20.425 0 7.901-5.139 14.705-15.412 20.413z" />
<glyph unicode="&#xe912;" glyph-name="prev" horiz-adv-x="593" d="M563.643-24.002c13.724 13.101 13.724 34.393 0 47.463l-437.97 417.264 437.97 418.052c13.724 13.111 13.724 34.403 0 47.463-13.682 13.101-35.988 13.101-49.723 0l-461.947-440.95c-6.857-6.555-10.296-14.747-10.296-23.726 0-8.192 3.439-17.181 10.296-23.736l461.947-440.991c13.735-13.898 36.041-13.898 49.723-0.839z" />
<glyph unicode="&#xe913;" glyph-name="search" d="M431.54 214.236c-190.796 0-345.856 148.792-345.856 331.676s155.060 331.869 345.856 331.869c190.592 0 345.869-148.985 345.869-331.869s-155.277-331.676-345.869-331.676zM1011.459 47.196l-246.173 236.217c61.020 71.391 97.795 162.831 97.795 262.499 0 228.6-193.306 414.088-431.54 414.088-238.438 0-431.54-185.489-431.54-414.088s193.103-414.088 431.54-414.088c103.868 0 198.948 35.092 273.348 93.644l246.173-236.022c16.724-16.050 43.684-16.050 60.398 0 16.726 15.842 16.726 41.908 0 57.75z" />
<glyph unicode="&#xe914;" glyph-name="cellphone" horiz-adv-x="623" d="M490.685-42.24c0 0 88.906 0 88.906 89.040v801.399c0 89.040-88.906 89.040-88.906 89.040h-400.077c0 0-88.906 0-88.906-89.040v-801.399c0-89.040 88.906-89.040 88.906-89.040h400.077zM290.647-5.166c-24.538 0-44.452 19.916-44.452 44.452 0 24.539 19.915 44.452 44.452 44.452s44.454-19.915 44.454-44.452c0-24.538-19.915-44.452-44.454-44.452zM179.514 882.961c0 5.512 4.401 9.824 9.824 9.824h202.574c5.423 0 9.868-4.401 9.868-9.824v-2.623c0-5.557-4.401-9.824-9.823-9.824h-202.618c-5.378 0-9.824 4.401-9.824 9.824v2.623zM46.156 826.106h488.983v-711.248h-488.983v711.248z" />
<glyph unicode="&#xe915;" glyph-name="email" horiz-adv-x="1664" d="M1639.018 872.129c-0.067 47.473-37.743 86.046-84.016 86.046h-0.109l-1470.996-2.073c-22.44-0.030-43.528-9.022-59.375-25.319-15.844-16.3-24.551-37.955-24.522-60.964l1.137-847.77c0.029-23.015 8.797-44.644 24.686-60.898 15.86-16.224 36.923-25.151 59.324-25.151h0.112l1470.992 2.073c46.315 0.066 83.952 38.766 83.898 86.282l-1.131 847.773zM1462.718 871.879l-642.578-458.152-643.824 456.338 1286.402 1.814zM1091.874 327.261l381.114-303.142-1306.907-1.84 383.437 304.982c18.33 14.585 21.668 41.644 7.451 60.451-14.22 18.8-40.603 22.224-58.94 7.642l-412.944-328.454-1.025 763.811 712.262-504.85c7.188-5.096 15.533-7.639 23.882-7.639 8.383 0 16.773 2.573 23.978 7.708l710.878 506.844 1.076-765.753-412.78 328.329c-18.32 14.578-44.717 11.158-58.933-7.642-14.22-18.8-10.885-45.866 7.451-60.448z" />
<glyph unicode="&#xe916;" glyph-name="placeholder" horiz-adv-x="725" d="M361.081 949.376c-198.429 0-359.878-165.248-359.878-368.346 0-53.005 10.605-103.603 31.464-150.4 89.979-201.498 262.521-414.298 313.269-474.701 3.764-4.544 9.329-7.142 15.144-7.142 5.865 0 11.393 2.598 15.194 7.142 50.711 60.403 223.253 273.152 313.231 474.701 20.91 46.797 31.514 97.395 31.514 150.4-0.050 203.098-161.499 368.346-359.94 368.346zM361.081 389.683c-103.072 0-186.948 85.85-186.948 191.347s83.876 191.347 186.948 191.347c103.085 0 186.961-85.85 186.961-191.347s-83.876-191.347-186.961-191.347z" />
<glyph unicode="&#xe917;" glyph-name="vk" horiz-adv-x="1769" d="M1686.616 151.15c-52.387 63.013-114.037 116.791-172.369 173.897-52.624 51.474-55.943 81.335-13.639 140.745 46.169 64.841 95.821 127.195 142.41 191.744 43.489 60.325 87.944 120.485 110.828 192.713 14.515 45.952 1.678 66.249-45.312 74.295-8.096 1.408-16.466 1.481-24.707 1.481l-278.784 0.329c-34.335 0.512-53.317-14.501-65.461-45.019-16.393-41.253-33.296-82.469-52.825-122.277-44.309-90.258-93.797-177.499-163.179-251.374-15.299-16.293-32.22-36.882-57.785-28.398-31.983 11.703-41.41 64.549-40.881 82.414l-0.274 322.688c-6.2 46.098-16.393 66.651-62.033 75.611l-289.597-0.055c-38.657 0-58.040-14.976-78.681-39.223-11.907-14.007-15.499-23.095 8.971-27.739 48.066-9.143 75.144-40.338 82.328-88.667 11.524-77.221 10.722-154.752 4.084-232.283-1.951-22.638-5.835-45.221-14.788-66.359-14.004-33.225-36.614-39.991-66.318-19.547-26.896 18.505-45.786 44.617-64.276 70.839-69.454 98.414-124.869 204.544-170.053 316.069-13.056 32.219-35.575 51.749-69.619 52.279-83.641 1.335-167.3 1.554-250.94-0.073-50.327-0.951-65.333-25.454-44.838-71.205 91.099-203.209 192.5-400.768 324.862-580.736 67.959-92.361 145.984-173.897 246.783-231.68 114.238-65.499 237.21-85.211 366.728-79.141 60.647 2.853 78.863 18.67 81.671 79.287 1.896 41.472 6.583 82.706 26.987 119.973 20.021 36.571 50.345 43.538 85.3 20.791 17.487-11.392 32.22-25.893 46.133-41.179 34.135-37.449 67.048-76.032 102.477-112.219 44.437-45.349 97.079-72.137 163.27-66.67l256.228-0.055c41.282 2.706 62.69 53.467 38.985 99.675-16.648 32.366-38.493 61.184-61.687 89.070z" />
<glyph unicode="&#xe918;" glyph-name="twitter" horiz-adv-x="1247" d="M1246.609 842.969c-45.882-19.86-95.113-33.328-146.839-39.341 52.816 30.895 93.245 79.898 112.407 138.111-49.543-28.611-104.228-49.386-162.497-60.648-46.66 48.624-113.030 78.91-186.645 78.91-141.23 0-255.741-111.858-255.741-249.74 0-19.555 2.259-38.655 6.622-56.919-212.506 10.426-400.942 109.88-527.060 261.004-22.046-36.83-34.587-79.745-34.587-125.555 0-86.672 45.181-163.146 113.733-207.887-41.91 1.369-81.327 12.631-115.835 31.35v-3.12c0-120.989 88.181-221.965 205.106-244.946-21.423-5.631-44.012-8.751-67.382-8.751-16.514 0-32.483 1.598-48.141 4.642 32.561-99.302 126.975-171.514 238.838-173.494-87.481-66.963-197.785-106.76-317.592-106.76-20.642 0-40.975 1.218-60.994 3.424 113.187-70.996 247.562-112.391 391.986-112.391 470.429 0 727.573 380.621 727.573 710.715l-0.858 32.339c50.243 35.006 93.71 78.987 127.908 129.057z" />
</font>
</defs>
</svg>
