<svg width="29" height="29" viewBox="0 0 29 29" xmlns="http://www.w3.org/2000/svg"><!--Generator: Sketch 44.1 (41455) - http://www.bohemiancoding.com/sketch--><title>benefit-3</title><g fill="none" fill-rule="evenodd"><path d="M14.58 17.428c.298-.279.632-.526.886-.84.63-.773.492-1.972-.288-2.595-.255-.205-.557-.355-.846-.512-.106-.058-.145-.116-.142-.232.043-1.7.083-3.4.12-5.1.004-.163.044-.27.197-.365.386-.24.545-.73.41-1.157a1.03 1.03 0 0 0-1.008-.736c-.458.004-.855.3-.988.734-.136.443.029.928.424 1.17.14.087.17.18.174.329.033 1.404.073 2.809.109 4.214.006.262.001.525.001.787l-.055.047c-.246-.191-.518-.357-.73-.58-.372-.396-.443-1.414.21-1.854.05-.033.112-.092.114-.14.01-.35.005-.7.005-1.04a.584.584 0 0 0-.25.044c-.821.373-1.319.993-1.39 1.903-.07.887.214 1.641.969 2.156.312.214.665.371 1.008.536.122.058.168.12.17.255.038 1.685.082 3.371.123 5.057.002.066 0 .13 0 .22-.446-.302-.555-.672-.496-1.167.054-.448-.026-1.37-.034-1.363-1.106.853-1.04 2.35-.046 3.027.15.1.315.177.459.283.064.047.129.137.134.21.023.33.023.663.032.995l.055 1.957.029-.001c.024-.982.049-1.965.072-2.957.738.308.97 1.232.475 1.858-.123.157-.127.3-.096.5.092-.066.165-.11.229-.165.788-.666.771-1.911-.039-2.602a3.001 3.001 0 0 0-.383-.28c-.127-.077-.165-.172-.161-.318.039-1.47.071-2.94.103-4.408.006-.256.001-.513.001-.786.801.305.99 1.03.48 1.649-.044.052-.092.121-.094.184-.009.344.037 1.065.057 1.083" fill="#3996C4"/><path d="M11.659 27.424h5.399l.011-.638c.028-1.52.056-3.04.081-4.56.005-.264.004-.527.003-.862l-.001-1.798 6.64 4.177 2.86-4.538-7.168-4.56 7.13-4.609-2.888-4.522-6.551 4.18V1.971h-5.402V9.77L5.116 5.586s-2.799 4.336-3.003 4.576l7.42 4.49-7.36 4.675s2.856 4.239 3.013 4.48l6.473-4.133v7.75zm6.704 1.33h-8.034V22.1l-5.535 3.534-4.538-6.878 6.755-4.077L.145 10.6l4.553-6.846 5.745 3.611V.643h8.062v6.625L24.13 3.68l4.315 6.755-6.5 4.203 6.537 4.157-4.274 6.781-5.726-3.601c0 .092-.001.183-.003.275-.026 1.52-.117 6.504-.117 6.504z" fill="#421D6A"/></g></svg>