<svg width="30" height="28" viewBox="0 0 30 28" xmlns="http://www.w3.org/2000/svg" xmlns:xlink="http://www.w3.org/1999/xlink"><!--Generator: Sketch 44.1 (41455) - http://www.bohemiancoding.com/sketch--><title>benefit-1</title><defs><path id="a" d="M0 26.924h23.611V0H0v26.924z"/></defs><g fill="none" fill-rule="evenodd"><g transform="translate(2.75 .637)"><mask id="b" fill="white"><use xlink:href="#a"/></mask><path d="M22.483 25.802H1.129v-2.565c0-.836.537-1.576 1.34-1.85l.062-.017a10.976 10.976 0 0 0 2.106-.782c.181-.087.337-.162.49-.22 1.263-.477 3.005-1.233 3.534-2.26.021-.04.036-.073.044-.092l.077-.171c1.049.772 2.127 1.226 3.024 1.226.896 0 1.975-.454 3.023-1.226l.078.17c.007.018.022.052.043.092.53 1.028 2.27 1.784 3.535 2.262.152.057.308.132.49.219.467.222 1.05.5 2.105.782l.063.018a1.958 1.958 0 0 1 1.34 1.849v2.565zm-6.95-10.108c-.622.683-1.31 1.257-1.998 1.663-.648.382-1.262.592-1.73.592-.467 0-1.081-.21-1.728-.592-.726-.428-1.452-1.042-2.1-1.776a9.789 9.789 0 0 1-1.834-3.01c.187-.4.404-.812.654-1.223.772-1.268 1.706-2.275 2.777-2.993 1.328-.89 2.883-1.341 4.621-1.341.523 0 1.071.04 1.63.121.741.222 2.063.91 2.769 1.752.137.587-.064.913-.212 1.543-.375 1.595-.946 2.609-1.875 4.014l-.974 1.25zM5.37 11.797c-.41-1.525-.705-1.806-.741-3.855.168-1.868.669-2.975 1.357-4.005.8-1.198 1.938-1.99 3.382-2.355 1.211-.306 2.377-.46 3.464-.46 1.532 0 2.645.31 3.31.57.33.13.584.26.765.363l-1.36 3.914a12.245 12.245 0 0 0-1.352-.077c-1.975 0-3.748.52-5.27 1.544-1.209.815-1.902 1.393-2.758 2.808-.493.816-.521.833-.797 1.553zm13.912-3.585a5.626 5.626 0 0 0-.451-.536 5.975 5.975 0 0 0-2.182-1.44l1.215-3.5c.198.174.386.368.557.59.902 1.165 1.19 2.804.86 4.886zM7.677 16.9l-.004.664-.015.032c-.147.284-.722.888-2.933 1.725-.623.236-1.097.595-2.497.97l-.096.027A3.077 3.077 0 0 0 0 23.237v3.687H23.611v-3.687a3.077 3.077 0 0 0-2.131-2.92l-.097-.028c-1.4-.374-1.873-.733-2.496-.968-2.212-.838-2.787-1.442-2.934-1.726l-.014-.032-.004-.664c.444-.438.867-.93 1.253-1.462 0 0 2.287-3.64 2.675-5.919.838-3.147.783-5.16-.548-6.877a5.486 5.486 0 0 0-1.4-1.268C17.687 1.197 16.015 0 12.832 0c-1.18 0-2.44.166-3.74.495-1.726.434-3.086 1.384-4.046 2.822C4.26 4.49 3.58 5.942 3.51 7.797c-.009 3.053.826 4.042 1.613 5.665L7.677 16.9z" fill="#421D6A" mask="url(#b)"/></g><path d="M26.553 14.988l-.82.553a.173.173 0 0 0-.046.238c.385.572.697 1 1.182 1.292.42.252.926.374 1.595.38-.426.27-.96.55-1.536.607-.912.089-1.715-.388-2.453-1.462a.172.172 0 0 0-.237-.045l-.822.554.285-2.957 2.852.84zm-3.174-1.08l-.338 3.525a.17.17 0 0 0 .265.158l.984-.664c.782 1.073 1.68 1.568 2.67 1.471.855-.084 1.595-.587 2.084-.921l.113-.077a.172.172 0 0 0 .046-.237.169.169 0 0 0-.154-.075c-1.87.144-2.362-.444-2.983-1.357l.98-.662a.17.17 0 0 0 .074-.168.174.174 0 0 0-.121-.139l-3.4-1.002a.172.172 0 0 0-.22.148zM2.75 14.988l.82.553a.173.173 0 0 1 .046.238c-.386.572-.698 1-1.184 1.292-.42.253-.925.375-1.595.381.426.27.961.55 1.536.606.913.09 1.716-.388 2.454-1.462a.172.172 0 0 1 .237-.045l.822.554-.285-2.957-2.852.84zm3.174-1.08l.337 3.525a.17.17 0 0 1-.265.158l-.984-.664c-.782 1.074-1.68 1.568-2.671 1.472-.855-.084-1.595-.587-2.083-.921L.144 17.4a.172.172 0 0 1-.046-.237.17.17 0 0 1 .155-.075c1.87.144 2.362-.444 2.983-1.358l-.98-.662a.17.17 0 0 1-.074-.168.174.174 0 0 1 .122-.139l3.4-1.003a.172.172 0 0 1 .22.148z" fill="#3996C4"/></g></svg>