<svg width="20" height="21" viewBox="0 0 20 21" xmlns="http://www.w3.org/2000/svg"><!--Generator: Sketch 44.1 (41455) - http://www.bohemiancoding.com/sketch--><title>cart</title><path d="M19.904 3.701a.38.38 0 0 0-.287-.13H3.505l-.192-1.62C3.182.84 2.253 0 1.151 0H.383A.386.386 0 0 0 0 .39c0 .215.171.39.383.39h.768c.714 0 1.317.543 1.402 1.265l1.558 13.177c.137 1.157 1.104 2.03 2.25 2.03h1.492l-.163.315a1.563 1.563 0 0 0-.383-.048c-.878 0-1.593.727-1.593 1.62 0 .894.715 1.621 1.593 1.621s1.592-.727 1.592-1.62c0-.48-.206-.912-.532-1.209l.352-.679h7.9l-.164.315a1.563 1.563 0 0 0-.383-.048c-.878 0-1.592.727-1.592 1.62 0 .894.714 1.621 1.592 1.621.878 0 1.593-.727 1.593-1.62 0-.48-.206-.912-.533-1.209l.352-.679h.319a.386.386 0 0 0 .382-.39.386.386 0 0 0-.382-.389H6.36a1.51 1.51 0 0 1-1.49-1.344l-.212-1.792h13.896a.385.385 0 0 0 .38-.343l1.062-8.988a.394.394 0 0 0-.093-.305zM8.134 19.14c0 .464-.371.841-.827.841a.835.835 0 0 1-.827-.841c0-.464.37-.842.827-.842h.003l-.342.66a.393.393 0 0 0 .16.526.382.382 0 0 0 .517-.163l.342-.658c.092.135.147.3.147.477zm8.765 0c0 .464-.37.841-.827.841a.835.835 0 0 1-.827-.841c0-.464.371-.842.827-.842h.004l-.342.66a.393.393 0 0 0 .16.526.382.382 0 0 0 .517-.163l.342-.658c.092.135.146.3.146.477zM9.862 4.35h3.058l-.227 8.207H10.09L9.862 4.35zm-.539 8.207H7.11L6.482 4.35h2.614l.227 8.207zm4.363-8.207H16.3l-.628 8.207H13.46l.227-8.207zm-10.09 0h2.118l.628 8.207H4.567l-.97-8.207zm14.619 8.207H16.44l.628-8.207h2.117l-.97 8.207z" fill="#410C50" fill-rule="evenodd"/></svg>