<svg width="14" height="28" viewBox="0 0 14 28" xmlns="http://www.w3.org/2000/svg"><!--Generator: Sketch 44.1 (41455) - http://www.bohemiancoding.com/sketch--><title>facebook</title><path d="M.447 14.688h3.038v12.446c0 .245.2.445.447.445h5.151c.247 0 .447-.2.447-.445V14.747h3.492c.228 0 .419-.17.445-.394l.53-4.582a.443.443 0 0 0-.444-.496H9.53V6.403c0-.865.469-1.304 1.393-1.304h2.63c.247 0 .447-.2.447-.445V.448c0-.246-.2-.445-.447-.445H9.928A3.57 3.57 0 0 0 9.762 0C9.133 0 6.947.123 5.22 1.704c-1.913 1.752-1.647 3.85-1.584 4.213v3.358H.447c-.247 0-.447.2-.447.445v4.523c0 .246.2.445.447.445z" fill="#410C50" fill-rule="evenodd"/></svg>