<svg width="18" height="18" viewBox="0 0 18 18" xmlns="http://www.w3.org/2000/svg"><!--Generator: Sketch 44.1 (41455) - http://www.bohemiancoding.com/sketch--><title>search</title><path d="M7.586 13.11c-3.354 0-6.08-2.616-6.08-5.831 0-3.215 2.726-5.834 6.08-5.834 3.35 0 6.08 2.62 6.08 5.834 0 3.215-2.73 5.83-6.08 5.83m10.194 2.936l-4.328-4.152a7.077 7.077 0 0 0 1.72-4.614C15.171 3.26 11.772 0 7.585 0 3.394 0 0 3.26 0 7.279c0 4.018 3.394 7.279 7.586 7.279a7.743 7.743 0 0 0 4.805-1.646l4.327 4.149a.772.772 0 0 0 1.062 0 .694.694 0 0 0 0-1.016" fill="#410C50" fill-rule="evenodd"/></svg>