<?xml version="1.0" encoding="UTF-8"?>
<svg width="29px" height="29px" viewBox="0 0 29 29" version="1.1" xmlns="http://www.w3.org/2000/svg" xmlns:xlink="http://www.w3.org/1999/xlink">
    <!-- Generator: Sketch 44.1 (41455) - http://www.bohemiancoding.com/sketch -->
    <title>benefit-3</title>
    <desc>Created with Sketch.</desc>
    <defs></defs>
    <g id="Page-1" stroke="none" stroke-width="1" fill="none" fill-rule="evenodd">
        <g id="Инновация" transform="translate(-848.000000, -1226.000000)">
            <g id="main-slot" transform="translate(510.000000, 320.000000)">
                <g id="Group-2" transform="translate(328.000000, 896.534900)">
                    <g id="benefit-3" transform="translate(10.000000, 9.993089)">
                        <path d="M14.5800736,16.8995848 C14.8776361,16.6214686 15.2115189,16.3735254 15.4661975,16.0608633 C16.0958924,15.2868606 15.9576133,14.0882498 15.1782619,13.465112 C14.9227081,13.2604605 14.6212072,13.1104701 14.3315213,12.9530459 C14.2260616,12.8953236 14.1871159,12.8371641 14.190179,12.7208451 C14.2330631,11.020663 14.2733215,9.32135548 14.3105169,7.6207361 C14.3144552,7.45850165 14.3538385,7.35180298 14.5074333,7.25559926 C14.8933895,7.01508996 15.0517978,6.52576286 14.9161442,6.09853089 C14.7713013,5.64549883 14.3774684,5.35732496 13.909245,5.36257244 C13.4506485,5.36738263 13.0537525,5.66255313 12.9207245,6.09678173 C12.785071,6.54019342 12.9496056,7.02471033 13.3447512,7.26740608 C13.4847807,7.35355214 13.5158497,7.44713212 13.5193504,7.59581059 C13.5517323,9.00038489 13.5924283,10.4049592 13.6278733,11.8099708 C13.6344371,12.0719073 13.629186,12.3347183 13.629186,12.5966548 C13.6108072,12.6123973 13.5919907,12.628577 13.5736119,12.6438821 C13.3281227,12.4527865 13.0555029,12.2870538 12.8441459,12.0631615 C12.4721927,11.6682889 12.4013028,10.6502787 13.0546277,10.2103653 C13.103638,10.1771313 13.1662137,10.1180972 13.1675264,10.069558 C13.1775911,9.71972634 13.1732151,9.36945734 13.1732151,9.02924601 C13.1102019,9.0170019 12.9754235,9.0506732 12.9233501,9.07428684 C12.1015522,9.44685761 11.6044476,10.0669343 11.5326826,10.976934 C11.4631054,11.8641947 11.7471027,12.618082 12.5015113,13.1332092 C12.8139521,13.3466065 13.1666513,13.5040308 13.510161,13.668889 C13.6318116,13.7274858 13.6777588,13.7887064 13.6808219,13.9238289 C13.7184548,15.6091431 13.7617764,17.2953319 13.8033477,18.9806462 C13.805098,19.0466769 13.8037853,19.1118331 13.8037853,19.2006029 C13.3574414,18.898873 13.2480434,18.5293633 13.3071183,18.0343514 C13.3613797,17.5856922 13.2813004,16.6638857 13.2729861,16.6708823 C12.1667534,17.5235971 12.2323922,19.0217514 13.2274765,19.6978012 C13.3762578,19.7983778 13.5416676,19.8753408 13.6856354,19.9811648 C13.7495239,20.0279548 13.8147251,20.1175992 13.8199762,20.1919385 C13.842731,20.5216548 13.842731,20.8544322 13.8519204,21.1858978 C13.8702993,21.837022 13.8886781,22.4890209 13.907057,23.1427689 C13.916684,23.1418943 13.926311,23.1418943 13.9355005,23.1418943 C13.9604432,22.1597418 13.9845108,21.177152 14.0081408,20.1849418 C14.7463585,20.493231 14.9782823,21.417224 14.4833657,22.0434228 C14.3604024,22.1995352 14.3555888,22.3420916 14.3870955,22.5423702 C14.4789898,22.4772141 14.5516301,22.4330478 14.6155185,22.3783866 C15.404497,21.7123945 15.3869933,20.4669936 14.577448,19.776076 C14.4566726,19.6737502 14.3293333,19.5771092 14.1941174,19.4953361 C14.0672157,19.4188104 14.0287076,19.3243558 14.0326459,19.1783011 C14.0720292,17.7085706 14.1039734,16.2388402 14.1363552,14.769547 C14.1416063,14.5137326 14.1372304,14.2574809 14.1372304,13.9837375 C14.9380239,14.2885284 15.1270636,15.0135546 14.6163937,15.6327567 C14.5730721,15.6852315 14.524937,15.7543233 14.5231866,15.817293 C14.5139972,16.1605653 14.5599443,16.8820932 14.5800736,16.8995848" id="Fill-132" fill="#3996C4"></path>
                        <path d="M11.6586137,26.8963926 L17.0576243,26.8963926 L17.0690017,26.2575125 C17.0970076,24.7374937 17.1245759,23.2174749 17.1503939,21.6978935 C17.1552074,21.4342078 17.1543322,21.1705222 17.1530194,20.8364329 L17.1517066,19.0378606 L23.7926035,23.2148512 L26.6522675,18.6766594 L19.4840722,14.117915 L26.614197,9.50800768 L23.7256519,4.98599559 L17.174899,9.16517261 L17.174899,1.44394957 L11.7732628,1.44394957 L11.7732628,9.24169829 L5.11617501,5.05771109 C5.11617501,5.05771109 2.31733628,9.39387509 2.11254321,9.63394709 L9.53235393,14.124037 L2.17205572,18.7986632 C2.17205572,18.7986632 5.0286566,23.0377489 5.18575214,23.2786955 L11.6586137,19.1458712 L11.6586137,26.8963926 Z M18.3629614,28.2253158 L10.3287715,28.2253158 L10.3287715,21.5715168 L4.79366967,25.1056916 L0.256277748,18.2280002 L7.01051097,14.151149 L0.145129369,10.0703621 L4.6982746,3.22459295 L10.4434206,6.83616803 L10.4434206,0.115026376 L18.5047412,0.115026376 L18.5047412,6.7404016 L24.1308622,3.15112829 L28.4463949,9.90594124 L21.9464027,14.1087319 L28.4827151,18.2656071 L24.2087536,25.0470948 L18.4832992,21.4455774 C18.482424,21.5382828 18.4819865,21.629239 18.4802361,21.7206325 C18.4544182,23.2406513 18.3629614,28.2253158 18.3629614,28.2253158 L18.3629614,28.2253158 Z" id="Fill-134" fill="#421D6A"></path>
                    </g>
                </g>
            </g>
        </g>
    </g>
</svg>