<?xml version="1.0" encoding="UTF-8"?>
<svg width="30px" height="28px" viewBox="0 0 30 28" version="1.1" xmlns="http://www.w3.org/2000/svg" xmlns:xlink="http://www.w3.org/1999/xlink">
    <!-- Generator: Sketch 44.1 (41455) - http://www.bohemiancoding.com/sketch -->
    <title>benefit-1</title>
    <desc>Created with Sketch.</desc>
    <defs>
        <polygon id="path-1" points="1.58682233e-05 26.9241468 23.6110166 26.9241468 23.6110166 1.05172453e-05 1.58682233e-05 1.05172453e-05 1.58682233e-05 26.9241468"></polygon>
    </defs>
    <g id="Page-1" stroke="none" stroke-width="1" fill="none" fill-rule="evenodd">
        <g id="Инновация" transform="translate(-848.000000, -1068.000000)">
            <g id="main-slot" transform="translate(510.000000, 320.000000)">
                <g id="Group" transform="translate(328.000000, 737.644782)">
                    <g id="benefit-1" transform="translate(10.000000, 10.992398)">
                        <g id="Page-1" transform="translate(2.749262, 0.000000)">
                            <mask id="mask-2" fill="white">
                                <use xlink:href="#path-1"></use>
                            </mask>
                            <g id="Clip-2"></g>
                            <path d="M22.4828547,25.8017569 L11.8057093,25.8017569 L1.12856389,25.8017569 L1.12856389,23.2365483 C1.12856389,22.4009006 1.66617928,21.6605918 2.46826506,21.3877745 L2.53147348,21.3697374 C3.58644584,21.0870864 4.16912699,20.8101674 4.63729246,20.5875173 C4.81829599,20.5012233 4.9744922,20.4264457 5.12698582,20.3689164 C6.39025506,19.8907498 8.13163385,19.1348228 8.66136803,18.1077613 C8.68204961,18.0683216 8.69691285,18.0346139 8.70511143,18.0157354 L8.78201941,17.8448302 C9.83080317,18.6172166 10.9093663,19.0707202 11.8056564,19.0707202 C12.7015763,19.0707202 13.7808799,18.6171641 14.8288703,17.8448302 L14.9065717,18.0157354 C14.9139768,18.0329837 14.928893,18.0674803 14.9495216,18.1069199 C15.4800492,19.1348228 17.2206875,19.8907498 18.4851733,20.3689164 C18.6372438,20.4264457 18.7925408,20.5012759 18.9744435,20.5875173 C19.4422387,20.8101674 20.0248141,21.0870864 21.0802096,21.3697374 L21.1431007,21.3877745 C21.9447633,21.6606444 22.4828018,22.4009532 22.4828018,23.2365483 L22.4828018,25.8017569 L22.4828547,25.8017569 Z M15.5328904,15.6936329 C14.9105916,16.3772538 14.2221752,16.9508118 13.5345522,17.3566723 C12.8874461,17.7388164 12.2732929,17.9491613 11.8055506,17.9491613 C11.3377554,17.9491613 10.7237081,17.7388164 10.076549,17.3566723 C9.35089521,16.9294092 8.62524137,16.3148866 7.97728893,15.5810984 C7.1605515,14.6551076 6.53698323,13.6223141 6.14313393,12.5710103 C6.33032607,12.1716706 6.54729757,11.7588161 6.79727498,11.3475393 C7.56878798,10.079738 8.50310895,9.07276437 9.574214,8.35464689 C10.9023314,7.4647828 12.4569412,7.01369817 14.1949876,7.01369817 C14.718163,7.01369817 15.2660927,7.05476801 15.8247599,7.13527752 C16.5661233,7.35671811 17.8883165,8.04570282 18.5935533,8.88708241 C18.7307605,9.47415501 18.5301333,9.79992667 18.381977,10.4295941 C18.0065877,12.0251653 17.4363367,13.0389226 16.5065646,14.4439739 L15.5328904,15.6936329 Z M5.37003411,11.796836 C4.95941739,10.2719406 4.66479738,9.99139312 4.62861783,7.94173985 C4.79703257,6.07371941 5.29762212,4.96735784 5.98566826,3.93698336 C6.78569117,2.7385959 7.92413039,1.9461215 9.36840315,1.58169897 C10.5792015,1.27643594 11.744934,1.12156951 12.8321189,1.12156951 C14.3635611,1.12156951 15.4768227,1.43172306 16.1412252,1.69223521 C16.4718132,1.82164991 16.7263924,1.9514853 16.9066025,2.05460688 L15.5478594,5.96902024 C15.086676,5.9176435 14.633744,5.89177108 14.1949347,5.89177108 C12.2200815,5.89177108 10.4472836,6.41148073 8.92578552,7.43649141 C7.71625666,8.2511572 7.02345005,8.82855394 6.16720074,10.2442803 C5.67391058,11.0601555 5.64566514,11.0770883 5.37003411,11.796836 L5.37003411,11.796836 Z M19.2819168,8.21208563 C19.1521676,8.03707868 19.0026361,7.85628724 18.8307303,7.67633718 C18.3546836,7.17718874 17.6488122,6.6246127 16.6488496,6.23678929 L17.8637737,2.73612435 C18.0621265,2.90950113 18.2504823,3.10422792 18.4208012,3.32566851 C19.32328,4.49076889 19.610865,6.13040736 19.2819168,8.21208563 L19.2819168,8.21208563 Z M7.67711505,16.8990669 L7.67256616,17.562968 C7.66759411,17.573643 7.66346838,17.5842654 7.65849633,17.594993 C7.51139791,17.8792742 6.93617482,18.4832269 4.72493795,19.3204522 C4.10179283,19.5561963 3.62823216,19.9153076 2.22817885,20.2891956 L2.13185873,20.3171189 C0.857481745,20.7352846 1.58682233e-05,21.9103238 1.58682233e-05,23.2364958 L1.58682233e-05,26.9241573 L11.8057093,26.9241573 L23.6110325,26.9241573 L23.6110325,23.2365483 C23.6109796,21.9103763 22.7539369,20.7353898 21.479507,20.3171715 L21.3828695,20.2892482 C19.9827633,19.9153602 19.5101018,19.5562488 18.8869038,19.3205048 C16.6752967,18.4832269 16.1000207,17.8793267 15.9529223,17.5950456 C15.9479502,17.584318 15.9438245,17.573643 15.9387996,17.5630206 L15.9347267,16.8991195 C16.3793014,16.4611815 16.802454,15.9697632 17.1876816,15.4373277 C17.1876816,15.4373277 19.4751388,11.796836 19.8630111,9.5181171 C20.7010649,6.37072641 20.6456319,4.35893523 19.3149756,2.6412588 C18.9009207,2.10635173 18.4174689,1.69307659 17.9149752,1.37261614 C17.686843,1.1971885 16.0149141,1.05172453e-05 12.8321718,1.05172453e-05 C11.6511528,1.05172453e-05 10.3924325,0.166393331 9.0911324,0.494636542 C7.36630945,0.929314271 6.00550354,1.87912665 5.04558184,3.31662368 C4.26126847,4.49118958 3.58046881,5.94225385 3.50959075,7.79712774 C3.5011277,10.8502839 4.33595491,11.8394834 5.12317745,13.4620839 L7.67711505,16.8990669 Z" id="Fill-1" fill="#421D6A" mask="url(#mask-2)"></path>
                        </g>
                        <path d="M25.7350578,17.2524716 L25.7350578,16.2626132 C25.7350578,16.217001 25.7172854,16.1738445 25.6843408,16.1421584 C25.6526327,16.1104723 25.6082256,16.0914765 25.5638185,16.0914765 C24.8738677,16.0914765 24.3449778,16.1104723 23.831276,16.3500352 C23.3873636,16.5566128 23.003094,16.9077108 22.6238343,17.4590492 C22.63907,16.9559212 22.7050227,16.3551208 22.9802325,15.8469072 C23.416535,15.0407649 24.2612527,14.6415198 25.5638185,14.6301445 C25.657706,14.6288454 25.7337577,14.5528462 25.7337577,14.4590237 L25.7337577,13.4678978 L28.0256457,15.3576261 L25.7350578,17.2524716 Z M28.404842,15.2245602 L25.6716417,12.9735469 C25.6209247,12.9317846 25.5498829,12.9228649 25.4902559,12.9507804 C25.4306765,12.9786325 25.3925793,13.039454 25.3925793,13.105377 L25.3925793,14.2917368 C24.0659313,14.3398839 23.1540084,14.8075709 22.6796246,15.683391 C22.2712569,16.4388038 22.275046,17.3336039 22.2788826,17.9255005 L22.2788826,18.0623846 C22.2788826,18.1396828 22.3308362,18.2081407 22.4069514,18.2284515 C22.4209505,18.2322063 22.4361228,18.2334421 22.4501219,18.2334421 C22.5110013,18.2334421 22.5680282,18.2017559 22.5984996,18.1473034 C23.5243423,16.5161021 24.2866509,16.4375047 25.3913427,16.4337182 L25.3913427,17.6162441 C25.3913427,17.6821512 25.4293765,17.7429885 25.4902559,17.7708406 C25.5511195,17.7987561 25.6209247,17.7898364 25.6728783,17.7480741 L28.404842,15.4894403 C28.4441759,15.4565184 28.4670215,15.4083714 28.4670215,15.3576261 C28.4670215,15.3069283 28.4441759,15.2574821 28.404842,15.2245602 L28.404842,15.2245602 Z" id="Page-1" fill="#3996C4" transform="translate(25.372583, 15.584066) rotate(-124.000000) translate(-25.372583, -15.584066) "></path>
                        <path d="M4.29218908,17.2524716 L4.29218908,16.2626132 C4.29218908,16.217001 4.27440967,16.1738445 4.24145193,16.1421584 C4.2097313,16.1104723 4.16530656,16.0914765 4.12088181,16.0914765 C3.43065672,16.0914765 2.90155657,16.1104723 2.38765061,16.3500352 C1.94356176,16.5566128 1.55913942,16.9077108 1.17972894,17.4590492 C1.19497071,16.9559212 1.26094962,16.3551208 1.53626885,15.8469072 C1.97274475,15.0407649 2.81779824,14.6415198 4.12088181,14.6301445 C4.2148066,14.6288454 4.29088854,14.5528462 4.29088854,14.4590237 L4.29088854,13.4678978 L6.58368755,15.3576261 L4.29218908,17.2524716 Z M6.96303458,15.2245602 L4.22874782,12.9735469 C4.17801067,12.9317846 4.10694059,12.9228649 4.04728994,12.9507804 C3.98768688,12.9786325 3.94957454,13.039454 3.94957454,13.105377 L3.94957454,14.2917368 C2.62239915,14.3398839 1.71011377,14.8075709 1.2355414,15.683391 C0.827011376,16.4388038 0.830801991,17.3336039 0.834640188,17.9255005 L0.834640188,18.0623846 C0.834640188,18.1396828 0.886614443,18.2081407 0.962759821,18.2284515 C0.97676448,18.2322063 0.991942802,18.2334421 1.00594746,18.2334421 C1.06685107,18.2334421 1.12390063,18.2017559 1.15438416,18.1473034 C2.0805949,16.5161021 2.84320647,16.4375047 3.94833743,16.4337182 L3.94833743,17.6162441 C3.94833743,17.6821512 3.98638633,17.7429885 4.04728994,17.7708406 C4.1081777,17.7987561 4.17801067,17.7898364 4.22998492,17.7480741 L6.96303458,15.4894403 C7.00238403,15.4565184 7.02523874,15.4083714 7.02523874,15.3576261 C7.02523874,15.3069283 7.00238403,15.2574821 6.96303458,15.2245602 L6.96303458,15.2245602 Z" id="Page-1-Copy" fill="#3996C4" transform="translate(3.929570, 15.584066) scale(-1, 1) rotate(-124.000000) translate(-3.929570, -15.584066) "></path>
                    </g>
                </g>
            </g>
        </g>
    </g>
</svg>