<?xml version="1.0" encoding="UTF-8"?>
<svg width="26px" height="26px" viewBox="0 0 26 26" version="1.1" xmlns="http://www.w3.org/2000/svg" xmlns:xlink="http://www.w3.org/1999/xlink">
    <!-- Generator: Sketch 44.1 (41455) - http://www.bohemiancoding.com/sketch -->
    <title>benefit-2</title>
    <desc>Created with Sketch.</desc>
    <defs>
        <path d="M22.387216,24.5466717 C21.1897006,24.5466717 20.2154842,23.5780293 20.2154842,22.3872753 C20.2154842,21.1965213 21.1897006,20.227879 22.387216,20.227879 C23.5843363,20.227879 24.5581575,21.1965213 24.5581575,22.3872753 C24.5581575,23.5780293 23.5843363,24.5466717 22.387216,24.5466717 Z M11.7712215,14.2528808 C11.7712215,13.0625199 12.7454379,12.0938775 13.9425582,12.0938775 C15.1396784,12.0938775 16.1138948,13.0625199 16.1138948,14.2528808 C16.1138948,15.4440278 15.1396784,16.4126702 13.9425582,16.4126702 C12.7454379,16.4126702 11.7712215,15.4440278 11.7712215,14.2528808 Z M4.12055988,23.9267248 C2.92264918,23.9267248 1.948828,22.9576893 1.948828,21.7673285 C1.948828,20.5761814 2.92264918,19.607539 4.12055988,19.607539 C5.31728492,19.607539 6.2911061,20.5761814 6.2911061,21.7673285 C6.2911061,22.9576893 5.31728492,23.9267248 4.12055988,23.9267248 Z M22.387216,5.31456021 C23.5843363,5.31456021 24.5581575,6.28320259 24.5581575,7.47395656 C24.5581575,8.66471053 23.5843363,9.63335291 22.387216,9.63335291 C21.1897006,9.63335291 20.2154842,8.66471053 20.2154842,7.47395656 C20.2154842,6.28320259 21.1897006,5.31456021 22.387216,5.31456021 Z M3.35699555,11.5729964 C2.15987529,11.5729964 1.1856589,10.6039609 1.1856589,9.41320691 C1.1856589,8.22284606 2.15987529,7.25381056 3.35699555,7.25381056 C4.55411582,7.25381056 5.52793699,8.22284606 5.52793699,9.41320691 C5.52793699,10.6039609 4.55411582,11.5729964 3.35699555,11.5729964 Z M9.01377414,3.3387499 C9.01377414,2.14799593 9.98799053,1.17935355 11.185506,1.17935355 C12.3826263,1.17935355 13.3568427,2.14799593 13.3568427,3.3387499 C13.3568427,4.52950386 12.3826263,5.49814625 11.185506,5.49814625 C9.98799053,5.49814625 9.01377414,4.52950386 9.01377414,3.3387499 Z M22.387216,19.0485254 C21.6556645,19.0485254 20.9802341,19.2851824 20.4277171,19.6814451 L16.4846108,16.4280018 C16.9908872,15.8430425 17.2995537,15.0839319 17.2995537,14.2528808 C17.2995537,13.7323927 17.17585,13.2413885 16.9612457,12.8018828 L20.4126988,10.1683863 C20.9679823,10.5717252 21.6489458,10.8127065 22.387216,10.8127065 C24.2380296,10.8127065 25.7438164,9.31492745 25.7438164,7.47395656 C25.7438164,5.63298567 24.2380296,4.13520666 22.387216,4.13520666 C20.5360073,4.13520666 19.0298253,5.63298567 19.0298253,7.47395656 C19.0298253,8.15287109 19.2357347,8.78421835 19.5870849,9.31178251 L16.2640783,11.8469995 C15.6605779,11.2706888 14.8432637,10.914524 13.9425582,10.914524 C13.8370345,10.914524 13.7323013,10.9204207 13.6287538,10.9302487 L12.42531,6.43848414 C13.6639283,5.94708683 14.5425016,4.74375309 14.5425016,3.3387499 C14.5425016,1.49777901 13.0363196,0 11.185506,0 C9.33429726,0 7.82811524,1.49777901 7.82811524,3.3387499 C7.82811524,5.17972079 9.33429726,6.6774998 11.185506,6.6774998 C11.2111953,6.6774998 11.2360941,6.67435485 11.2613882,6.67396173 L12.4877547,11.2490673 C11.9447229,11.5100975 11.482316,11.9091121 11.1499362,12.4036544 L6.49187767,10.597671 C6.63297108,10.2289264 6.71359588,9.83069807 6.71359588,9.41320691 C6.71359588,7.57223602 5.20820431,6.07445701 3.35699555,6.07445701 C1.5057868,6.07445701 0,7.57223602 0,9.41320691 C0,11.2545709 1.5057868,12.7523499 3.35699555,12.7523499 C4.356506,12.7523499 5.25286412,12.3128442 5.86782587,11.6213499 L10.678044,13.4866941 C10.6199467,13.733179 10.5855626,13.9890987 10.5855626,14.2528808 C10.5855626,14.7788724 10.7116377,15.2749872 10.9305894,15.7176379 L6.17095933,19.1299008 C5.60342394,18.6915744 4.89321426,18.4281854 4.12055988,18.4281854 C2.26895591,18.4281854 0.763169109,19.9259644 0.763169109,21.7673285 C0.763169109,23.6082993 2.26895591,25.1060784 4.12055988,25.1060784 C5.9709782,25.1060784 7.47676499,23.6082993 7.47676499,21.7673285 C7.47676499,21.1226152 7.28903567,20.5219311 6.9696982,20.0108779 L11.631709,16.6685899 C12.2344189,17.2393971 13.0473857,17.5920238 13.9425582,17.5920238 C14.5231358,17.5920238 15.0693293,17.4446046 15.5459642,17.185933 L19.5989415,20.5301866 C19.2396869,21.0612888 19.0298253,21.7001053 19.0298253,22.3872753 C19.0298253,24.2282462 20.5360073,25.7260252 22.387216,25.7260252 C24.2380296,25.7260252 25.7438164,24.2282462 25.7438164,22.3872753 C25.7438164,20.5463044 24.2380296,19.0485254 22.387216,19.0485254 L22.387216,19.0485254 Z" id="path-1"></path>
    </defs>
    <g id="Page-1" stroke="none" stroke-width="1" fill="none" fill-rule="evenodd">
        <g id="Инновация" transform="translate(-850.000000, -1149.000000)">
            <g id="main-slot" transform="translate(510.000000, 320.000000)">
                <g id="Group-3" transform="translate(328.000000, 816.589496)">
                    <g id="benefit-2" transform="translate(12.000000, 12.576711)">
                        <g id="Oval">
                            <mask id="mask-2" fill="white">
                                <use xlink:href="#path-1"></use>
                            </mask>
                            <use id="Mask" fill="#421D6A" xlink:href="#path-1"></use>
                            <ellipse fill="#3996C4" mask="url(#mask-2)" cx="11.1360075" cy="3.07214499" rx="3.62739437" ry="3.60810385"></ellipse>
                        </g>
                    </g>
                </g>
            </g>
        </g>
    </g>
</svg>