<?xml version="1.0" encoding="UTF-8"?>
<svg width="20px" height="21px" viewBox="0 0 20 21" version="1.1" xmlns="http://www.w3.org/2000/svg" xmlns:xlink="http://www.w3.org/1999/xlink">
    <!-- Generator: Sketch 44.1 (41455) - http://www.bohemiancoding.com/sketch -->
    <title>cart</title>
    <desc>Created with Sketch.</desc>
    <defs></defs>
    <g id="Page-1" stroke="none" stroke-width="1" fill="none" fill-rule="evenodd">
        <g id="MAIN-НАведенный-1920" transform="translate(-904.000000, -2146.000000)" fill="#410C50">
            <g id="Group-2" transform="translate(881.000000, 2138.000000)">
                <path d="M42.9036182,11.7013405 C42.8309242,11.6179559 42.7266817,11.570263 42.6171812,11.570263 L26.5047308,11.570263 L26.3133474,9.95151103 C26.1818447,8.83898921 25.2523411,8 24.1512612,8 L23.3828689,8 C23.1713721,8 23,8.17445822 23,8.3896476 C23,8.60483698 23.1713721,8.7792952 23.3828689,8.7792952 L24.1512612,8.7792952 C24.8651841,8.7792952 25.4678708,9.32324324 25.5531229,10.0446108 L27.1111952,23.2218692 C27.2481091,24.3794862 28.215287,25.2524527 29.3609328,25.2524527 L30.8528452,25.2524527 L30.6898452,25.5666126 C30.5670209,25.5355966 30.4387853,25.5188677 30.30667,25.5188677 C29.4285219,25.5188677 28.7141396,26.2459502 28.7141396,27.1396459 C28.7141396,28.0333416 29.4285219,28.760424 30.30667,28.760424 C31.1848181,28.760424 31.8992515,28.0333416 31.8992515,27.1396459 C31.8992515,26.6598598 31.6931659,26.2282861 31.3665022,25.9312708 L31.7186905,25.2524527 L39.6182968,25.2524527 L39.4552967,25.5666126 C39.3324724,25.5355966 39.2042369,25.5188677 39.0721216,25.5188677 C38.1939735,25.5188677 37.4795401,26.2459502 37.4795401,27.1396459 C37.4795401,28.0333416 38.1939735,28.760424 39.0721216,28.760424 C39.9502697,28.760424 40.664703,28.0333416 40.664703,27.1396459 C40.664703,26.6598598 40.4586175,26.2282861 40.1319537,25.9312708 L40.484142,25.2524527 L40.8025869,25.2524527 C41.0140836,25.2524527 41.1854558,25.0779945 41.1854558,24.8628051 C41.1854558,24.6476157 41.0140836,24.4731575 40.8025869,24.4731575 L29.3608817,24.4731575 C28.6023929,24.4731575 27.9620319,23.8951802 27.8713686,23.1287694 L27.6594634,21.3367541 L41.5545414,21.3367541 C41.7483241,21.3367541 41.9115283,21.1894673 41.9346536,20.9936564 L42.9972424,12.0064605 C43.0103621,11.8958006 42.9762612,11.7847251 42.9036182,11.7013405 L42.9036182,11.7013405 Z M31.1335137,27.1396459 C31.1335137,27.6036382 30.7625903,27.9811288 30.30667,27.9811288 C29.8507497,27.9811288 29.4798774,27.6036382 29.4798774,27.1396459 C29.4798774,26.6756535 29.8508008,26.2981629 30.30667,26.2981629 C30.3078441,26.2981629 30.3090183,26.2983188 30.3101924,26.2983188 L29.9681118,26.9576545 C29.8693316,27.1479584 29.9409026,27.3836692 30.1278958,27.4841463 C30.1849177,27.5147986 30.2460236,27.5292935 30.3063127,27.5292935 C30.4437371,27.5292935 30.5766181,27.4537538 30.6452282,27.3214814 L30.9871046,26.6625614 C31.0791973,26.7983146 31.1335137,26.96259 31.1335137,27.1396459 Z M39.8990163,27.1396459 C39.8990163,27.6036382 39.5280929,27.9811288 39.0721726,27.9811288 C38.6162523,27.9811288 38.2453289,27.6036382 38.2453289,27.1396459 C38.2453289,26.6756535 38.6162523,26.2981629 39.0721726,26.2981629 C39.0733467,26.2981629 39.0745209,26.2983188 39.075695,26.2983188 L38.7336144,26.9576545 C38.6348342,27.1479584 38.7064052,27.3836692 38.8933984,27.4841463 C38.9504203,27.5147986 39.0115262,27.5292935 39.0718153,27.5292935 C39.2092397,27.5292935 39.3421207,27.4537538 39.4107308,27.3214814 L39.7526072,26.6625614 C39.8446999,26.7983146 39.8990163,26.96259 39.8990163,27.1396459 Z M32.8624475,12.3495582 L35.9199364,12.3495582 L35.6931249,20.5574589 L33.0893101,20.5574589 L32.8624475,12.3495582 L32.8624475,12.3495582 Z M32.323266,20.5574589 L30.1099775,20.5574589 L29.4819704,12.3495582 L32.0964034,12.3495582 L32.323266,20.5574589 Z M36.6859805,12.3495582 L39.3004135,12.3495582 L38.6724064,20.5574589 L36.4591179,20.5574589 L36.6859805,12.3495582 Z M26.5969257,12.3495582 L28.7138844,12.3495582 L29.3418914,20.5574589 L27.5673707,20.5574589 L26.5969257,12.3495582 L26.5969257,12.3495582 Z M41.2150132,20.5574589 L39.4404925,20.5574589 L40.0684996,12.3495582 L42.1854583,12.3495582 L41.2150132,20.5574589 Z" id="cart"></path>
            </g>
        </g>
    </g>
</svg>