<?xml version="1.0" encoding="UTF-8"?>
<svg width="14px" height="23px" viewBox="0 0 14 23" version="1.1" xmlns="http://www.w3.org/2000/svg" xmlns:xlink="http://www.w3.org/1999/xlink">
    <!-- Generator: Sketch 44.1 (41455) - http://www.bohemiancoding.com/sketch -->
    <title>cellphone</title>
    <desc>Created with Sketch.</desc>
    <defs></defs>
    <g id="Page-1" stroke="none" stroke-width="1" fill="none" fill-rule="evenodd">
        <g id="Cellexon-Copy" transform="translate(-579.000000, -626.000000)" fill="#410C50">
            <g id="cellphone" transform="translate(579.028197, 626.511246)">
                <g id="Capa_1">
                    <path d="M10.9930556,22 C10.9930556,22 12.9899722,22 12.9899722,20.0000833 L12.9899722,1.99991667 C12.9899722,0 10.9930556,0 10.9930556,0 L2.00694444,0 C2.00694444,0 0.0100277778,0 0.0100277778,1.99991667 L0.0100277778,20.0000833 C0.0100277778,22 2.00694444,22 2.00694444,22 L10.9930556,22 Z M6.5,21.1672778 C5.94886111,21.1672778 5.50155556,20.7199444 5.50155556,20.1688333 C5.50155556,19.6176667 5.94886111,19.1703889 6.5,19.1703889 C7.05113889,19.1703889 7.49847222,19.6176944 7.49847222,20.1688333 C7.49847222,20.7199722 7.05116667,21.1672778 6.5,21.1672778 Z M4.00386111,1.21911111 C4.00386111,1.09530556 4.10272222,0.998444444 4.22452778,0.998444444 L8.77452778,0.998444444 C8.89633333,0.998444444 8.99616667,1.09730556 8.99616667,1.21911111 L8.99616667,1.27802778 C8.99616667,1.40283333 8.89730556,1.49869444 8.77552778,1.49869444 L4.22452778,1.49869444 C4.10372222,1.49869444 4.00386111,1.39983333 4.00386111,1.27802778 L4.00386111,1.21911111 Z M1.0085,2.49613889 L11.9915278,2.49613889 L11.9915278,18.4714444 L1.0085,18.4714444 L1.0085,2.49613889 Z" id="Shape"></path>
                </g>
            </g>
        </g>
    </g>
</svg>