<?xml version="1.0" encoding="UTF-8"?>
<svg width="26px" height="16px" viewBox="0 0 26 16" version="1.1" xmlns="http://www.w3.org/2000/svg" xmlns:xlink="http://www.w3.org/1999/xlink">
    <!-- Generator: Sketch 44.1 (41455) - http://www.bohemiancoding.com/sketch -->
    <title>email</title>
    <desc>Created with Sketch.</desc>
    <defs></defs>
    <g id="Page-1" stroke="none" stroke-width="1" fill="none" fill-rule="evenodd">
        <g id="Страница-товара-Copy-3" transform="translate(-490.000000, -580.000000)" fill="#410C50">
            <g id="Group-13" transform="translate(459.000000, 543.000000)">
                <path d="M56.6096614,38.3729877 C56.6086102,37.6312208 56.0199313,37.0285256 55.2969088,37.0285256 L55.295207,37.0285256 L32.3109003,37.0609192 C31.9602757,37.0613813 31.6307736,37.2018904 31.3831591,37.4565214 C31.1355946,37.7112037 30.9995492,38.0495652 30.9999997,38.4090776 L31.0177687,51.6554866 C31.0182192,52.0151016 31.1552156,52.3530524 31.4034808,52.607016 C31.6512956,52.8605176 31.9803972,53 32.3304212,53 L32.332173,53 L55.3164297,52.9676064 C56.0401029,52.9665797 56.6281812,52.3618823 56.6273303,51.6194481 L56.6096614,38.3729877 Z M53.8549682,38.3768893 L43.8146911,45.535512 L33.7549431,38.4052273 L53.8549682,38.3768893 Z M48.0605274,46.8865452 L54.0154397,51.6231443 L33.5950223,51.651893 L39.5862233,46.8865452 C39.8726293,46.6586607 39.9247851,46.23585 39.7026477,45.9419976 C39.4804603,45.6482479 39.0682199,45.5947548 38.7817138,45.822588 L32.3294701,50.9546866 L32.313453,39.0201407 L43.4425435,46.9084148 C43.5548635,46.9880383 43.6852528,47.0277731 43.8156922,47.0277731 C43.9466821,47.0277731 44.0777722,46.9875763 44.1903424,46.9073367 L55.2978098,38.9879011 L55.3146277,50.9527871 L48.8649368,45.8226393 C48.578681,45.5948575 48.1662403,45.6482992 47.944103,45.9420489 C47.7219156,46.2357987 47.7740213,46.6587121 48.0605274,46.8865452 Z" id="email"></path>
            </g>
        </g>
    </g>
</svg>