<?xml version="1.0" encoding="UTF-8"?>
<svg width="14px" height="28px" viewBox="0 0 14 28" version="1.1" xmlns="http://www.w3.org/2000/svg" xmlns:xlink="http://www.w3.org/1999/xlink">
    <!-- Generator: Sketch 44.1 (41455) - http://www.bohemiancoding.com/sketch -->
    <title>facebook</title>
    <desc>Created with Sketch.</desc>
    <defs></defs>
    <g id="Page-1" stroke="none" stroke-width="1" fill="none" fill-rule="evenodd">
        <g id="MAIN-1920" transform="translate(-1293.000000, -4289.000000)" fill="#410C50">
            <g id="Group-4" transform="translate(0.000000, 3984.000000)">
                <path d="M1293.44701,319.688348 L1296.485,319.688348 L1296.485,332.133757 C1296.485,332.379474 1296.68509,332.578573 1296.93202,332.578573 L1302.08304,332.578573 C1302.32997,332.578573 1302.53005,332.379474 1302.53005,332.133757 L1302.53005,319.746975 L1306.02247,319.746975 C1306.24955,319.746975 1306.44061,319.577411 1306.46653,319.352957 L1306.99696,314.771177 C1307.01153,314.645117 1306.97139,314.518878 1306.88664,314.42431 C1306.80179,314.329653 1306.68039,314.275475 1306.55299,314.275475 L1302.53023,314.275475 L1302.53023,311.403389 C1302.53023,310.5376 1302.9987,310.098566 1303.92276,310.098566 L1306.55299,310.098566 C1306.79992,310.098566 1307,309.899378 1307,309.653751 L1307,305.448107 C1307,305.202391 1306.79992,305.003292 1306.55299,305.003292 L1302.92816,305.003292 C1302.90259,305.002046 1302.84582,305 1302.76214,305 C1302.13319,305 1299.94703,305.122858 1298.22013,306.703733 C1296.30673,308.455595 1296.57271,310.553168 1296.63627,310.916849 L1296.63627,314.275386 L1293.44701,314.275386 C1293.20008,314.275386 1293,314.474485 1293,314.720202 L1293,319.243443 C1293,319.48916 1293.20008,319.688348 1293.44701,319.688348 Z" id="facebook"></path>
            </g>
        </g>
    </g>
</svg>