<?xml version="1.0" encoding="UTF-8"?>
<svg width="28px" height="28px" viewBox="0 0 28 28" version="1.1" xmlns="http://www.w3.org/2000/svg" xmlns:xlink="http://www.w3.org/1999/xlink">
    <!-- Generator: Sketch 44.1 (41455) - http://www.bohemiancoding.com/sketch -->
    <title>instagram</title>
    <desc>Created with Sketch.</desc>
    <defs></defs>
    <g id="Page-1" stroke="none" stroke-width="1" fill="none" fill-rule="evenodd">
        <g id="MAIN-1920" transform="translate(-1338.000000, -4289.000000)" fill="#410C50">
            <g id="Group-4" transform="translate(0.000000, 3984.000000)">
                <path d="M1341.57171,305 L1362.25543,305 C1364.21971,305 1365.82686,306.454286 1365.82686,308.571429 L1365.82686,329.255714 C1365.82686,331.372857 1364.21971,332.827143 1362.25543,332.827143 L1341.57171,332.827143 C1339.60686,332.827143 1338,331.372857 1338,329.255714 L1338,308.571429 C1338,306.454286 1339.60686,305 1341.57171,305 L1341.57171,305 Z M1358.27086,308.091714 C1357.58171,308.091714 1357.01857,308.655143 1357.01857,309.344571 L1357.01857,312.343143 C1357.01857,313.032286 1357.58171,313.596 1358.27086,313.596 L1361.416,313.596 C1362.10514,313.596 1362.66886,313.032286 1362.66886,312.343143 L1362.66886,309.344571 C1362.66886,308.655143 1362.10514,308.091714 1361.416,308.091714 L1358.27086,308.091714 L1358.27086,308.091714 Z M1362.682,316.768 L1360.23286,316.768 C1360.46457,317.524571 1360.59,318.326 1360.59,319.155143 C1360.59,323.783714 1356.71686,327.535714 1351.94,327.535714 C1347.16343,327.535714 1343.29086,323.783714 1343.29086,319.155143 C1343.29086,318.325429 1343.416,317.524286 1343.648,316.768 L1341.09229,316.768 L1341.09229,328.522571 C1341.09229,329.130857 1341.59,329.628857 1342.19857,329.628857 L1361.57629,329.628857 C1362.18486,329.628857 1362.68257,329.131143 1362.68257,328.522571 L1362.68257,316.768 L1362.682,316.768 Z M1351.93971,313.438 C1348.85343,313.438 1346.35114,315.862286 1346.35114,318.853143 C1346.35114,321.844 1348.85343,324.268286 1351.93971,324.268286 C1355.02629,324.268286 1357.52886,321.844 1357.52886,318.853143 C1357.52886,315.862286 1355.02657,313.438 1351.93971,313.438 Z" id="instagram"></path>
            </g>
        </g>
    </g>
</svg>