<?xml version="1.0" encoding="UTF-8"?>
<svg width="25px" height="37px" viewBox="0 0 25 37" version="1.1" xmlns="http://www.w3.org/2000/svg" xmlns:xlink="http://www.w3.org/1999/xlink">
    <!-- Generator: Sketch 44.1 (41455) - http://www.bohemiancoding.com/sketch -->
    <title>marker-main</title>
    <desc>Created with Sketch.</desc>
    <defs></defs>
    <g id="Symbols" stroke="none" stroke-width="1" fill="none" fill-rule="evenodd">
        <g id="icon-center" fill="#421D6A">
            <g id="marker-main">
                <path d="M14.1569854,17.8360191 C14.2536928,17.7627516 14.3619564,17.6882527 14.448324,17.6039027 C17.709614,20.0586719 25.5891388,20.3338868 23.7261527,15.0229164 C22.6076312,17.0559357 19.0556108,18.2768555 15.0407329,16.8453685 L15.1696761,16.5498358 C19.6030112,17.6882527 25.1056017,15.4225013 24.9541543,10.1238448 C24.8239946,5.43718749 20.2933439,3.360454 18.2484993,3.08647049 C20.2276559,4.09743888 22.4671318,7.12172434 22.0906419,10.5462104 C21.6600203,14.4644826 17.9468209,15.5284006 15.3411949,15.7389677 L15.3411949,15.5284006 C17.4730154,15.2125499 20.4648627,13.8223145 20.4338434,10.0074788 C20.3894431,5.03513977 14.8892855,3.54023645 13.8565234,0 C13.0372474,4.23412279 16.4621493,4.96187226 16.8161349,9.46012748 C16.9134505,10.7247615 16.8064033,12.5355155 15.2231997,14.0217991 C15.1508212,14.0876783 15.0820921,14.1443221 15.0139711,14.1904991 C13.3437917,13.2078526 12.3165036,10.1109153 14.6441717,8.62463167 C13.6801388,7.93074533 12.3675943,8.154242 11.3573364,9.18614396 C10.3933035,10.1712532 9.64336492,12.3150973 9.70479541,13.9940929 C8.15078648,12.5139662 8.04313106,10.7161418 8.14044669,9.46012748 C8.49443229,4.96187226 11.9187259,4.23412279 11.1012747,0 C10.0672961,3.54023645 4.56592204,5.03513977 4.5245629,10.0074788 C4.4898942,13.8223145 7.48295798,15.2125499 9.61417023,15.5284006 L9.61417023,15.7389677 C7.01097719,15.5284006 3.29777776,14.4644826 2.86715611,10.5462104 C2.48823339,7.12172434 4.72770927,4.09743888 6.70929874,3.08647049 C4.66384589,3.360454 0.131370525,5.43718749 0.00303554114,10.1238448 C-0.147803682,15.4225013 5.35296218,17.6882527 9.78690547,16.5498358 L9.91706512,16.8453685 C5.90036258,18.2768555 2.35077506,17.0559357 1.2304289,15.0229164 C-0.63194893,20.3338868 7.24757581,20.0586719 10.5082576,17.6039027 C10.5946252,17.6882527 10.7028888,17.7627516 10.7995962,17.8360191 C9.34655225,19.0680213 6.71963853,20.7636407 3.99662562,19.9854044 C4.5355109,23.9560104 10.5629976,21.2167909 11.2837415,18.1093869 C11.3585529,18.1401715 11.4333642,18.1728033 11.5209483,18.1931212 C11.0033508,20.2581565 9.57220286,22.4192399 7.31143919,22.7560242 C8.78516272,25.5999115 12.9520963,23.3341602 12.2416922,18.3316522 C12.2946076,18.3415033 12.3602956,18.3415033 12.424159,18.3415033 L12.5330308,18.3415033 C12.5968942,18.3415033 12.6607576,18.3415033 12.7142812,18.3316522 C12.0050936,23.3341602 16.1702024,25.5999115 17.6457506,22.7560242 C15.384987,22.4192399 13.9532308,20.2581565 13.4362415,18.1931212 C13.5220009,18.1728033 13.5980287,18.1401715 13.6740566,18.1093869 C14.3941922,21.2167909 20.4222871,23.9560104 20.9605642,19.9854044 C18.2369431,20.7636407 15.6100293,19.0680213 14.1569854,17.8360191 L14.1569854,17.8360191 Z" id="Path"></path>
                <path d="M12.51875,37 C12.4784779,37 7.20849059,33.1807206 7.20849059,30.270116 C7.20849059,27.3595113 9.56800187,25 12.4786065,25 C15.3892112,25 17.7487225,27.3595113 17.7487225,30.270116 C17.7487225,33.1807206 12.5590221,37 12.51875,37 Z M12.4786065,32.5 C13.8593184,32.5 14.9786065,31.3807119 14.9786065,30 C14.9786065,28.6192881 13.8593184,27.5 12.4786065,27.5 C11.0978947,27.5 9.97860655,28.6192881 9.97860655,30 C9.97860655,31.3807119 11.0978947,32.5 12.4786065,32.5 Z" id="Combined-Shape"></path>
            </g>
        </g>
    </g>
</svg>