<?xml version="1.0" encoding="UTF-8"?>
<svg width="17px" height="24px" viewBox="0 0 17 24" version="1.1" xmlns="http://www.w3.org/2000/svg" xmlns:xlink="http://www.w3.org/1999/xlink">
    <!-- Generator: Sketch 44.1 (41455) - http://www.bohemiancoding.com/sketch -->
    <title>placeholder</title>
    <desc>Created with Sketch.</desc>
    <defs>
        <polygon id="path-1" points="8.44416379 0.249 0.0175862069 0.249 0.0175862069 23.7003 16.8707414 23.7003 16.8707414 0.249 8.44416379 0.249"></polygon>
    </defs>
    <g id="Page-1" stroke="none" stroke-width="1" fill="none" fill-rule="evenodd">
        <g id="Cellexon-Copy" transform="translate(-951.000000, -631.000000)">
            <g id="placeholder" transform="translate(951.028197, 631.000000)">
                <mask id="mask-2" fill="white">
                    <use xlink:href="#path-1"></use>
                </mask>
                <g id="Clip-2"></g>
                <path d="M8.43463793,0.249 C3.78396552,0.249 0,4.122 0,8.8821 C0,10.1244 0.248551724,11.3103 0.737448276,12.4071 C2.84632759,17.1297 6.89027586,22.1172 8.07968966,23.5329 C8.16791379,23.6394 8.29834483,23.7003 8.43463793,23.7003 C8.57210345,23.7003 8.70165517,23.6394 8.79075862,23.5329 C9.9792931,22.1172 14.0232414,17.1309 16.1321207,12.4071 C16.6221897,11.3103 16.8707414,10.1244 16.8707414,8.8821 C16.869569,4.122 13.0856034,0.249 8.43463793,0.249 Z M8.43463793,13.3668 C6.01887931,13.3668 4.05303448,11.3547 4.05303448,8.8821 C4.05303448,6.4095 6.01887931,4.3974 8.43463793,4.3974 C10.8506897,4.3974 12.8165345,6.4095 12.8165345,8.8821 C12.8165345,11.3547 10.8506897,13.3668 8.43463793,13.3668 Z" id="Fill-1" fill="#410C50" mask="url(#mask-2)"></path>
            </g>
        </g>
    </g>
</svg>