<?xml version="1.0" encoding="UTF-8"?>
<svg width="18px" height="18px" viewBox="0 0 18 18" version="1.1" xmlns="http://www.w3.org/2000/svg" xmlns:xlink="http://www.w3.org/1999/xlink">
    <!-- Generator: Sketch 44.1 (41455) - http://www.bohemiancoding.com/sketch -->
    <title>search</title>
    <desc>Created with Sketch.</desc>
    <defs></defs>
    <g id="Page-1" stroke="none" stroke-width="1" fill="none" fill-rule="evenodd">
        <g id="MAIN-1920" transform="translate(-1881.000000, -65.000000)" fill="#410C50">
            <g id="header" transform="translate(-2.000000, -1.000000)">
                <path d="M1890.58567,79.1091313 C1887.23184,79.1091313 1884.50617,76.4936482 1884.50617,73.2788862 C1884.50617,70.0641243 1887.23184,67.4452483 1890.58567,67.4452483 C1893.93592,67.4452483 1896.6654,70.0641243 1896.6654,73.2788862 C1896.6654,76.4936482 1893.93592,79.1091313 1890.58567,79.1091313 M1900.77955,82.0453813 L1896.45229,77.8931255 C1897.5249,76.6382135 1898.17134,75.0308546 1898.17134,73.2788862 C1898.17134,69.2605329 1894.77338,65.9999912 1890.58567,65.9999912 C1886.39438,65.9999912 1883,69.2605329 1883,73.2788862 C1883,77.2972395 1886.39438,80.5577812 1890.58567,80.5577812 C1892.41147,80.5577812 1894.08281,79.940922 1895.39061,78.9116923 L1899.71787,83.0605114 C1900.01184,83.3426363 1900.48576,83.3426363 1900.77955,83.0605114 C1901.07356,82.7820435 1901.07356,82.3238492 1900.77955,82.0453813" id="search"></path>
            </g>
        </g>
    </g>
</svg>