<?xml version="1.0" encoding="UTF-8"?>
<svg width="28px" height="23px" viewBox="0 0 28 23" version="1.1" xmlns="http://www.w3.org/2000/svg" xmlns:xlink="http://www.w3.org/1999/xlink">
    <!-- Generator: Sketch 44.1 (41455) - http://www.bohemiancoding.com/sketch -->
    <title>twitter</title>
    <desc>Created with Sketch.</desc>
    <defs></defs>
    <g id="Page-1" stroke="none" stroke-width="1" fill="none" fill-rule="evenodd">
        <g id="Страница-товара-Copy-4" transform="translate(-1019.000000, -858.000000)" fill="#410C50">
            <g id="Group-4" transform="translate(754.000000, 426.000000)">
                <path d="M293,434.628629 C291.969443,435.074697 290.86367,435.377215 289.701851,435.512273 C290.888147,434.818345 291.796227,433.717679 292.226613,432.41018 C291.11384,433.052801 289.885544,433.519427 288.576771,433.772382 C287.528736,432.680252 286.038008,432 284.384541,432 C281.212393,432 278.640369,434.512431 278.640369,437.609384 C278.640369,438.048614 278.691107,438.477609 278.789107,438.887834 C274.016015,438.65365 269.78357,436.419826 266.950853,433.02545 C266.455682,433.852693 266.173989,434.816602 266.173989,435.845539 C266.173989,437.792263 267.188807,439.509942 268.728536,440.514878 C267.787194,440.484131 266.901853,440.231176 266.126773,439.810717 L266.126773,439.880793 C266.126773,442.598314 268.10741,444.866327 270.73365,445.382515 C270.252479,445.508993 269.745093,445.579069 269.220183,445.579069 C268.849274,445.579069 268.490581,445.543182 268.138887,445.474804 C268.870229,447.70523 270.990866,449.32718 273.503413,449.371648 C271.538514,450.875701 269.060967,451.769579 266.369989,451.769579 C265.906341,451.769579 265.449648,451.742228 265,451.692665 C267.542285,453.287308 270.56048,454.217073 273.804367,454.217073 C284.370633,454.217073 290.146329,445.667961 290.146329,438.253749 L290.127067,437.527375 C291.255579,436.741115 292.231875,435.75325 293,434.628629 Z" id="twitter"></path>
            </g>
        </g>
    </g>
</svg>