<?xml version="1.0" encoding="UTF-8"?>
<svg width="38px" height="22px" viewBox="0 0 38 22" version="1.1" xmlns="http://www.w3.org/2000/svg" xmlns:xlink="http://www.w3.org/1999/xlink">
    <!-- Generator: Sketch 44.1 (41455) - http://www.bohemiancoding.com/sketch -->
    <title>vk</title>
    <desc>Created with Sketch.</desc>
    <defs></defs>
    <g id="Page-1" stroke="none" stroke-width="1" fill="none" fill-rule="evenodd">
        <g id="Страница-товара-Copy-4" transform="translate(-937.000000, -858.000000)" fill="#410C50">
            <g id="Group-4" transform="translate(754.000000, 426.000000)">
                <path d="M219.2359,449.377643 C218.110395,448.023857 216.78588,446.868464 215.532663,445.641571 C214.402065,444.535679 214.330766,443.894143 215.239632,442.61775 C216.23155,441.224679 217.298292,439.885036 218.29922,438.49825 C219.23355,437.202214 220.188643,435.909714 220.680292,434.357929 C220.992127,433.370679 220.716333,432.934607 219.706787,432.76175 C219.532849,432.7315 219.353034,432.729929 219.175962,432.729929 L213.186457,432.722857 C212.448787,432.711857 212.040972,433.034393 211.780065,433.690071 C211.42788,434.576357 211.064725,435.461857 210.645158,436.317107 C209.693199,438.25625 208.629983,440.130571 207.139364,441.717714 C206.810684,442.06775 206.447137,442.510107 205.8979,442.327821 C205.210766,442.076393 205.00823,440.941036 205.019591,440.557214 L205.013715,433.624464 C204.880519,432.634071 204.661529,432.1925 203.680972,432 L197.459158,432.001179 C196.628643,432.001179 196.21221,432.322929 195.768746,432.843857 C195.512931,433.144786 195.435756,433.340036 195.961488,433.439821 C196.994148,433.63625 197.5759,434.306464 197.730251,435.344786 C197.977838,437.003821 197.960601,438.669536 197.818003,440.33525 C197.776086,440.821607 197.692643,441.306786 197.500292,441.760929 C197.199426,442.47475 196.713653,442.620107 196.075488,442.180893 C195.497653,441.783321 195.091797,441.222321 194.69456,440.658964 C193.202374,438.544607 192.011838,436.264464 191.041076,433.868429 C190.760581,433.176214 190.276766,432.756643 189.545364,432.74525 C187.748395,432.716571 185.951034,432.711857 184.154065,432.746821 C183.072828,432.76725 182.750416,433.293679 183.190746,434.276607 C185.147942,438.642429 187.326478,442.886857 190.17021,446.753357 C191.630271,448.737679 193.306581,450.489429 195.472189,451.730857 C197.926519,453.138071 200.568498,453.561571 203.351117,453.431143 C204.654086,453.369857 205.045447,453.030036 205.105777,451.727714 C205.146519,450.836714 205.247199,449.950821 205.68557,449.150179 C206.115715,448.364464 206.767199,448.214786 207.518189,448.7035 C207.89388,448.94825 208.210416,449.259786 208.509323,449.588214 C209.242684,450.392786 209.949797,451.221714 210.710972,451.999179 C211.665673,452.973464 212.796663,453.549 214.218725,453.431536 L219.723632,453.432714 C220.61056,453.374571 221.070478,452.284 220.561199,451.29125 C220.203529,450.595893 219.73421,449.97675 219.2359,449.377643 Z" id="vk"></path>
            </g>
        </g>
    </g>
</svg>